<svg width="157" height="157" viewBox="0 0 157 157" fill="none" xmlns="http://www.w3.org/2000/svg">
<path d="M93.0148 140.826L35.3081 125.364C27.013 123.141 21.6011 118.606 18.6485 113.043C15.6571 107.407 14.803 99.9715 17.1016 91.3928L31.6705 37.0212C33.9691 28.4425 38.4268 22.4298 43.8353 19.0447C49.1739 15.7033 56.1282 14.4819 64.4234 16.7046L122.13 32.167C130.425 34.3896 135.835 38.9239 138.786 44.4858C141.776 50.1208 142.629 57.5567 140.33 66.1364L125.761 120.508C123.465 129.078 118.997 135.089 113.578 138.476C108.227 141.821 101.271 143.039 93.0148 140.826Z" stroke="url(#paint0_linear)" stroke-width="15"/>
<mask id="path-2-inside-1" fill="white">
<path fill-rule="evenodd" clip-rule="evenodd" d="M71.4277 105.964L86.0037 51.5654Z"/>
</mask>
<path d="M69.4959 105.446C69.21 106.513 69.8432 107.61 70.9101 107.896C71.977 108.181 73.0737 107.548 73.3596 106.481L69.4959 105.446ZM87.9356 52.0831C88.2215 51.0161 87.5883 49.9195 86.5214 49.6336C85.4544 49.3477 84.3577 49.9809 84.0719 51.0478L87.9356 52.0831ZM73.3596 106.481L87.9356 52.0831L84.0719 51.0478L69.4959 105.446L73.3596 106.481Z" fill="url(#paint1_linear)" mask="url(#path-2-inside-1)"/>
<mask id="path-4-inside-2" fill="white">
<path fill-rule="evenodd" clip-rule="evenodd" d="M101.544 93.6807L69.8815 112.051L51.646 80.3105"/>
</mask>
<path d="M104.054 98.0055C106.442 96.6197 107.255 93.56 105.869 91.1715C104.483 88.783 101.424 87.9701 99.0351 89.3559L104.054 98.0055ZM69.8815 112.051L65.546 114.542L68.0474 118.896L72.3907 116.376L69.8815 112.051ZM55.9814 77.8197C54.6058 75.4253 51.5496 74.5994 49.1552 75.975C46.7608 77.3507 45.9349 80.4069 47.3105 82.8013L55.9814 77.8197ZM99.0351 89.3559L67.3723 107.726L72.3907 116.376L104.054 98.0055L99.0351 89.3559ZM74.2169 109.561L55.9814 77.8197L47.3105 82.8013L65.546 114.542L74.2169 109.561Z" fill="url(#paint2_linear)" mask="url(#path-4-inside-2)"/>
<defs>
<linearGradient id="paint0_linear" x1="95.2145" y1="17.1904" x2="62.217" y2="140.339" gradientUnits="userSpaceOnUse">
<stop stop-color="#E1E5F0"/>
<stop offset="1" stop-color="#CCDDFF"/>
</linearGradient>
<linearGradient id="paint1_linear" x1="86.0037" y1="51.5654" x2="71.4277" y2="105.964" gradientUnits="userSpaceOnUse">
<stop stop-color="#E1E5F0"/>
<stop offset="1" stop-color="#CCDDFF"/>
</linearGradient>
<linearGradient id="paint2_linear" x1="76.5951" y1="86.9956" x2="69.8815" y2="112.051" gradientUnits="userSpaceOnUse">
<stop stop-color="#E1E5F0"/>
<stop offset="1" stop-color="#CCDDFF"/>
</linearGradient>
</defs>
</svg>
