<svg width="167" height="167" viewBox="0 0 167 167" fill="none" xmlns="http://www.w3.org/2000/svg">
<circle cx="2" cy="2" r="2" fill="#C4C4C4"/>
<circle cx="2" cy="20.0804" r="2" fill="#C4C4C4"/>
<circle cx="2" cy="38.1609" r="2" fill="#C4C4C4"/>
<circle cx="2" cy="56.2413" r="2" fill="#C4C4C4"/>
<circle cx="2" cy="74.3218" r="2" fill="#C4C4C4"/>
<circle cx="2" cy="92.4022" r="2" fill="#C4C4C4"/>
<circle cx="2" cy="110.483" r="2" fill="#C4C4C4"/>
<circle cx="2" cy="128.563" r="2" fill="#C4C4C4"/>
<circle cx="2" cy="146.644" r="2" fill="#C4C4C4"/>
<circle cx="2" cy="164.724" r="2" fill="#C4C4C4"/>
<circle cx="20.0801" cy="2" r="2" fill="#C4C4C4"/>
<circle cx="20.0801" cy="20.0804" r="2" fill="#C4C4C4"/>
<circle cx="20.0801" cy="38.1609" r="2" fill="#C4C4C4"/>
<circle cx="20.0801" cy="56.2413" r="2" fill="#C4C4C4"/>
<circle cx="20.0801" cy="74.3218" r="2" fill="#C4C4C4"/>
<circle cx="20.0801" cy="92.4022" r="2" fill="#C4C4C4"/>
<circle cx="20.0801" cy="110.483" r="2" fill="#C4C4C4"/>
<circle cx="20.0801" cy="128.563" r="2" fill="#C4C4C4"/>
<circle cx="20.0801" cy="146.644" r="2" fill="#C4C4C4"/>
<circle cx="20.0801" cy="164.724" r="2" fill="#C4C4C4"/>
<circle cx="38.1602" cy="2" r="2" fill="#C4C4C4"/>
<circle cx="38.1602" cy="20.0804" r="2" fill="#C4C4C4"/>
<circle cx="38.1602" cy="38.1609" r="2" fill="#C4C4C4"/>
<circle cx="38.1602" cy="56.2413" r="2" fill="#C4C4C4"/>
<circle cx="38.1602" cy="74.3218" r="2" fill="#C4C4C4"/>
<circle cx="38.1602" cy="92.4022" r="2" fill="#C4C4C4"/>
<circle cx="38.1602" cy="110.483" r="2" fill="#C4C4C4"/>
<circle cx="38.1602" cy="128.563" r="2" fill="#C4C4C4"/>
<circle cx="38.1602" cy="146.644" r="2" fill="#C4C4C4"/>
<circle cx="38.1602" cy="164.724" r="2" fill="#C4C4C4"/>
<circle cx="56.2402" cy="2" r="2" fill="#C4C4C4"/>
<circle cx="56.2402" cy="20.0804" r="2" fill="#C4C4C4"/>
<circle cx="56.2402" cy="38.1609" r="2" fill="#C4C4C4"/>
<circle cx="56.2402" cy="56.2413" r="2" fill="#C4C4C4"/>
<circle cx="56.2402" cy="74.3218" r="2" fill="#C4C4C4"/>
<circle cx="56.2402" cy="92.4022" r="2" fill="#C4C4C4"/>
<circle cx="56.2402" cy="110.483" r="2" fill="#C4C4C4"/>
<circle cx="56.2402" cy="128.563" r="2" fill="#C4C4C4"/>
<circle cx="56.2402" cy="146.644" r="2" fill="#C4C4C4"/>
<circle cx="56.2402" cy="164.724" r="2" fill="#C4C4C4"/>
<circle cx="74.3203" cy="2" r="2" fill="#C4C4C4"/>
<circle cx="74.3203" cy="20.0804" r="2" fill="#C4C4C4"/>
<circle cx="74.3203" cy="38.1609" r="2" fill="#C4C4C4"/>
<circle cx="74.3203" cy="56.2413" r="2" fill="#C4C4C4"/>
<circle cx="74.3203" cy="74.3218" r="2" fill="#C4C4C4"/>
<circle cx="74.3203" cy="92.4022" r="2" fill="#C4C4C4"/>
<circle cx="74.3203" cy="110.483" r="2" fill="#C4C4C4"/>
<circle cx="74.3203" cy="128.563" r="2" fill="#C4C4C4"/>
<circle cx="74.3203" cy="146.644" r="2" fill="#C4C4C4"/>
<circle cx="74.3203" cy="164.724" r="2" fill="#C4C4C4"/>
<circle cx="92.4004" cy="2" r="2" fill="#C4C4C4"/>
<circle cx="92.4004" cy="20.0804" r="2" fill="#C4C4C4"/>
<circle cx="92.4004" cy="38.1609" r="2" fill="#C4C4C4"/>
<circle cx="92.4004" cy="56.2413" r="2" fill="#C4C4C4"/>
<circle cx="92.4004" cy="74.3218" r="2" fill="#C4C4C4"/>
<circle cx="92.4004" cy="92.4022" r="2" fill="#C4C4C4"/>
<circle cx="92.4004" cy="110.483" r="2" fill="#C4C4C4"/>
<circle cx="92.4004" cy="128.563" r="2" fill="#C4C4C4"/>
<circle cx="92.4004" cy="146.644" r="2" fill="#C4C4C4"/>
<circle cx="92.4004" cy="164.724" r="2" fill="#C4C4C4"/>
<circle cx="110.48" cy="2" r="2" fill="#C4C4C4"/>
<circle cx="110.48" cy="20.0804" r="2" fill="#C4C4C4"/>
<circle cx="110.48" cy="38.1609" r="2" fill="#C4C4C4"/>
<circle cx="110.48" cy="56.2413" r="2" fill="#C4C4C4"/>
<circle cx="110.48" cy="74.3218" r="2" fill="#C4C4C4"/>
<circle cx="110.48" cy="92.4022" r="2" fill="#C4C4C4"/>
<circle cx="110.48" cy="110.483" r="2" fill="#C4C4C4"/>
<circle cx="110.48" cy="128.563" r="2" fill="#C4C4C4"/>
<circle cx="110.48" cy="146.644" r="2" fill="#C4C4C4"/>
<circle cx="110.48" cy="164.724" r="2" fill="#C4C4C4"/>
<circle cx="128.561" cy="2" r="2" fill="#C4C4C4"/>
<circle cx="128.561" cy="20.0804" r="2" fill="#C4C4C4"/>
<circle cx="128.561" cy="38.1609" r="2" fill="#C4C4C4"/>
<circle cx="128.561" cy="56.2413" r="2" fill="#C4C4C4"/>
<circle cx="128.561" cy="74.3218" r="2" fill="#C4C4C4"/>
<circle cx="128.561" cy="92.4022" r="2" fill="#C4C4C4"/>
<circle cx="128.561" cy="110.483" r="2" fill="#C4C4C4"/>
<circle cx="128.561" cy="128.563" r="2" fill="#C4C4C4"/>
<circle cx="128.561" cy="146.644" r="2" fill="#C4C4C4"/>
<circle cx="128.561" cy="164.724" r="2" fill="#C4C4C4"/>
<circle cx="146.641" cy="2" r="2" fill="#C4C4C4"/>
<circle cx="146.641" cy="20.0804" r="2" fill="#C4C4C4"/>
<circle cx="146.641" cy="38.1609" r="2" fill="#C4C4C4"/>
<circle cx="146.641" cy="56.2413" r="2" fill="#C4C4C4"/>
<circle cx="146.641" cy="74.3218" r="2" fill="#C4C4C4"/>
<circle cx="146.641" cy="92.4022" r="2" fill="#C4C4C4"/>
<circle cx="146.641" cy="110.483" r="2" fill="#C4C4C4"/>
<circle cx="146.641" cy="128.563" r="2" fill="#C4C4C4"/>
<circle cx="146.641" cy="146.644" r="2" fill="#C4C4C4"/>
<circle cx="146.641" cy="164.724" r="2" fill="#C4C4C4"/>
<circle cx="164.721" cy="2" r="2" fill="#C4C4C4"/>
<circle cx="164.721" cy="20.0804" r="2" fill="#C4C4C4"/>
<circle cx="164.721" cy="38.1609" r="2" fill="#C4C4C4"/>
<circle cx="164.721" cy="56.2413" r="2" fill="#C4C4C4"/>
<circle cx="164.721" cy="74.3218" r="2" fill="#C4C4C4"/>
<circle cx="164.721" cy="92.4022" r="2" fill="#C4C4C4"/>
<circle cx="164.721" cy="110.483" r="2" fill="#C4C4C4"/>
<circle cx="164.721" cy="128.563" r="2" fill="#C4C4C4"/>
<circle cx="164.721" cy="146.644" r="2" fill="#C4C4C4"/>
<circle cx="164.721" cy="164.724" r="2" fill="#C4C4C4"/>
</svg>
