<svg width="1392" height="287" viewBox="0 0 1392 287" fill="none" xmlns="http://www.w3.org/2000/svg">
<g clip-path="url(#clip0)">
<path d="M504.404 86.7259H520.975V82.9004H526.961V68.3069H520.975V64.1272H526.961V56.8304H520.975H518.266V1.53784H507.113V56.8304H504.404H499.395V64.1272H504.404V68.3069H499.395V82.9004H504.404V86.7259Z" fill="#293D3D" stroke="white" stroke-width="2" stroke-miterlimit="10" stroke-linecap="round" stroke-linejoin="round"/>
<path d="M843.993 101.001H810.566V111.91H843.993V101.001Z" fill="#293D3D" stroke="white" stroke-width="2" stroke-miterlimit="10" stroke-linecap="round" stroke-linejoin="round"/>
<path d="M1032.42 127.956H1000.29V138.866H1032.42V127.956Z" fill="#293D3D" stroke="white" stroke-width="2" stroke-miterlimit="10" stroke-linecap="round" stroke-linejoin="round"/>
<path d="M1390 290.5V263C1380.83 261.371 1371.22 257.563 1344.82 254.764C1334.58 214.774 1318.39 148.713 1317.41 127.673C1316 96.7854 1324.91 36.9944 1324.91 36.9944L1314.58 49.4272C1314.58 49.4272 1313.57 59.664 1312.81 74.293H1299.99C1299.23 59.6286 1298.23 49.4272 1298.23 49.4272L1287.89 36.9944C1287.89 36.9944 1296.81 96.7854 1295.39 127.673C1294.45 148.005 1279.32 210.275 1269.05 250.549C1252.32 250.585 1235.5 251.435 1219.43 253.347V246.299L1185.06 242.473V161.784L1143.35 158.1L1123.25 161.784V251.045H1104.91V235.247H1078.67V143.754H953.975V222.708H922.88V112.548H914.846V133.872H888.729V112.548H880.695V269.145L867.841 270.066L858.547 242.367V116.799H796.01V286.573H780.321V253.631H775.091V217.82H766.207V210.275H735.143V178.892H720.021V107.979H691.982V167.557H657.484V251.151H649.451L628.72 266.949V97.6356L612.243 95.6165L579.857 97.6356V224.267H568.2V262.557H543.784V218.21H529.134V91.5785H479.609V275.167H467.29V208.504H458.217V201.243H424.601V208.504H413.386V263.053H387.646L388.403 286.466H381.661L371.295 263.407H343.508L351.101 285.368L349.116 286.431H346.753L338.814 263.372H309.011L316.603 285.333L314.618 286.395H312.256L304.316 263.336H265.66L271.804 285.51L269.756 286.395H267.456L261.061 263.336H222.152L226.027 285.829L223.916 286.395H221.711L217.742 263.336H178.455V286.395H174.139V263.336H128.583L124.614 286.395H122.408L120.298 285.829L124.173 263.336H85.2643L79.2154 286.395H76.947L74.8992 285.545L80.7276 263.336H50.7666L44.7177 286.395H42.4494L40.4016 285.545L46.23 263.336H19.4195L12.5199 286.395H2" fill="#293D3D" fill-opacity="0.75"/>
<path d="M1390 290.5V263C1380.83 261.371 1371.22 257.563 1344.82 254.764C1334.58 214.774 1318.39 148.713 1317.41 127.673C1316 96.7854 1324.91 36.9944 1324.91 36.9944L1314.58 49.4272C1314.58 49.4272 1313.57 59.664 1312.81 74.293H1299.99C1299.23 59.6286 1298.23 49.4272 1298.23 49.4272L1287.89 36.9944C1287.89 36.9944 1296.81 96.7854 1295.39 127.673C1294.45 148.005 1279.32 210.275 1269.05 250.549C1252.32 250.585 1235.5 251.435 1219.43 253.347V246.299L1185.06 242.473V161.784L1143.35 158.1L1123.25 161.784V251.045H1104.91V235.247H1078.67V143.754H953.975V222.708H922.88V112.548H914.846V133.872H888.729V112.548H880.695V269.145L867.841 270.066L858.547 242.367V116.799H796.01V286.573H780.321V253.631H775.091V217.82H766.207V210.275H735.143V178.892H720.021V107.979H691.982V167.557H657.484V251.151H649.451L628.72 266.949V97.6356L612.243 95.6165L579.857 97.6356V224.267H568.2V262.557H543.784V218.21H529.134V91.5785H479.609V275.167H467.29V208.504H458.217V201.243H424.601V208.504H413.386V263.053H387.646L388.403 286.466H381.661L371.295 263.407H343.508L351.101 285.368L349.116 286.431H346.753L338.814 263.372H309.011L316.603 285.333L314.618 286.395H312.256L304.316 263.336H265.66L271.804 285.51L269.756 286.395H267.456L261.061 263.336H222.152L226.027 285.829L223.916 286.395H221.711L217.742 263.336H178.455V286.395H174.139V263.336H128.583L124.614 286.395H122.408L120.298 285.829L124.173 263.336H85.2643L79.2154 286.395H76.947L74.8992 285.545L80.7276 263.336H50.7666L44.7177 286.395H42.4494L40.4016 285.545L46.23 263.336H19.4195L12.5199 286.395H2" stroke="white" stroke-width="2" stroke-miterlimit="10" stroke-linecap="round" stroke-linejoin="round"/>
<path d="M1312.47 82.4043C1312.34 85.9819 1312.25 89.8073 1312.15 93.6683H1300.65C1300.59 89.8073 1300.5 85.9819 1300.34 82.4043H1312.47Z" fill="#293D3D" stroke="white" stroke-width="2" stroke-miterlimit="10" stroke-linecap="round" stroke-linejoin="round"/>
<path d="M1312.18 113.044H1300.65C1300.75 109.254 1300.78 105.499 1300.75 101.78H1312.09C1312.09 105.499 1312.09 109.254 1312.18 113.044Z" fill="#293D3D" stroke="white" stroke-width="2" stroke-miterlimit="10" stroke-linecap="round" stroke-linejoin="round"/>
<path d="M1300.37 121.191H1312.47C1312.66 125.016 1312.91 128.771 1313.22 132.455H1299.58C1299.93 128.735 1300.18 124.981 1300.37 121.191Z" fill="#293D3D" stroke="white" stroke-width="2" stroke-miterlimit="10" stroke-linecap="round" stroke-linejoin="round"/>
<path d="M1298.23 144.498C1298.42 143.223 1298.57 141.877 1298.73 140.602H1314.11C1314.26 141.912 1314.42 143.258 1314.61 144.498C1318.23 169.01 1327.24 219.874 1333.29 253.595C1316.82 252.072 1298.67 250.903 1280.11 250.585C1286.13 216.899 1294.7 168.301 1298.23 144.498Z" fill="#293D3D" stroke="white" stroke-width="2" stroke-miterlimit="10" stroke-linecap="round" stroke-linejoin="round"/>
<path d="M269.883 228.021L279.366 168.301C296.284 165.042 310.618 163.271 322.779 162.598L309.862 228.021H269.883Z" fill="#293D3D" stroke="white" stroke-width="2" stroke-miterlimit="10" stroke-linecap="round" stroke-linejoin="round"/>
<path d="M314.271 228.021L327.22 162.421C339.318 161.996 349.084 162.669 356.96 164.05L344.327 228.057H314.271V228.021Z" fill="#293D3D" stroke="white" stroke-width="2" stroke-miterlimit="10" stroke-linecap="round" stroke-linejoin="round"/>
<path d="M224.264 233.441H264.621L260.715 258.058H221.838L224.264 233.441Z" fill="#293D3D" stroke="white" stroke-width="2" stroke-miterlimit="10" stroke-linecap="round" stroke-linejoin="round"/>
<path d="M220.451 228.021H178.455V191.573C193.798 187.889 209.487 184.099 225.145 180.38L220.451 228.021Z" fill="#293D3D" stroke="white" stroke-width="2" stroke-miterlimit="10" stroke-linecap="round" stroke-linejoin="round"/>
<path d="M338.405 258.058H308.35L313.201 233.441H343.257L338.405 258.058Z" fill="#293D3D" stroke="white" stroke-width="2" stroke-miterlimit="10" stroke-linecap="round" stroke-linejoin="round"/>
<path d="M348.771 228.021L361.246 164.901C387.143 170.745 389.412 184.347 389.412 184.347L378.385 228.057H348.771V228.021Z" fill="#293D3D" stroke="white" stroke-width="2" stroke-miterlimit="10" stroke-linecap="round" stroke-linejoin="round"/>
<path d="M217.489 258.058H178.455V233.441H219.915L217.489 258.058Z" fill="#293D3D" stroke="white" stroke-width="2" stroke-miterlimit="10" stroke-linecap="round" stroke-linejoin="round"/>
<path d="M269.032 233.441H308.759L303.907 258.058H265.125L269.032 233.441Z" fill="#293D3D" stroke="white" stroke-width="2" stroke-miterlimit="10" stroke-linecap="round" stroke-linejoin="round"/>
<path d="M370.792 258.058H342.848L347.699 233.441H377.03L370.792 258.058Z" fill="#293D3D" stroke="white" stroke-width="2" stroke-miterlimit="10" stroke-linecap="round" stroke-linejoin="round"/>
<path d="M224.799 228.021L229.619 179.352C242.441 176.342 255.264 173.402 267.866 170.674C270.26 170.143 272.528 169.718 274.828 169.257L265.503 228.057H224.799V228.021Z" fill="#293D3D" stroke="white" stroke-width="2" stroke-miterlimit="10" stroke-linecap="round" stroke-linejoin="round"/>
<path d="M174.14 228.021H125.875L123.512 204.183C139.579 200.782 156.592 196.815 174.14 192.6V228.021Z" fill="#293D3D" stroke="white" stroke-width="2" stroke-miterlimit="10" stroke-linecap="round" stroke-linejoin="round"/>
<path d="M85.6118 258.058L81.9258 233.441H122.063L124.489 258.058H85.6118Z" fill="#293D3D" stroke="white" stroke-width="2" stroke-miterlimit="10" stroke-linecap="round" stroke-linejoin="round"/>
<path d="M121.528 228.021H81.1069L78.7441 212.4C91.1254 210.629 104.736 208.114 119.259 205.104L121.528 228.021Z" fill="#293D3D" stroke="white" stroke-width="2" stroke-miterlimit="10" stroke-linecap="round" stroke-linejoin="round"/>
<path d="M16.0817 228.021L12.4902 199.613C14.2859 209.461 24.3674 214.03 40.2143 214.915L42.1991 228.021H16.0817Z" fill="#293D3D" stroke="white" stroke-width="2" stroke-miterlimit="10" stroke-linecap="round" stroke-linejoin="round"/>
<path d="M17.7803 201.384C16.9297 199.826 4.80037 171.701 76.4736 179.919C147.926 188.137 166.798 190.085 166.924 190.085C94.6203 207.194 27.3578 218.847 17.7803 201.384Z" fill="#293D3D" stroke="white" stroke-width="2" stroke-miterlimit="10" stroke-linecap="round" stroke-linejoin="round"/>
<path d="M51.1138 258.058L47.4277 233.441H77.5147L81.2323 258.058H51.1138Z" fill="#293D3D" stroke="white" stroke-width="2" stroke-miterlimit="10" stroke-linecap="round" stroke-linejoin="round"/>
<path d="M76.6965 228.021H46.6096L44.6562 215.092C53.257 215.234 63.2754 214.455 74.4282 213.003L76.6965 228.021Z" fill="#293D3D" stroke="white" stroke-width="2" stroke-miterlimit="10" stroke-linecap="round" stroke-linejoin="round"/>
<path d="M128.836 258.058L126.41 233.441H174.14V258.058H128.836Z" fill="#293D3D" stroke="white" stroke-width="2" stroke-miterlimit="10" stroke-linecap="round" stroke-linejoin="round"/>
<path d="M43.0169 233.441L46.7344 258.058H19.8924L16.7734 233.441H43.0169Z" fill="#293D3D" stroke="white" stroke-width="2" stroke-miterlimit="10" stroke-linecap="round" stroke-linejoin="round"/>
<path d="M493.464 86.7259H510.036V82.9004H516.022V68.3069H510.036V64.1272H516.022V56.8304H510.036H507.326V1.53784H496.174V56.8304H493.464H488.455V64.1272H493.464V68.3069H488.455V82.9004H493.464V86.7259Z" stroke="white" stroke-width="2" stroke-miterlimit="10" stroke-linecap="round" stroke-linejoin="round"/>
<path d="M833.053 101.001H799.627V111.91H833.053V101.001Z" stroke="white" stroke-width="2" stroke-miterlimit="10" stroke-linecap="round" stroke-linejoin="round"/>
<path d="M1021.48 127.956H989.35V138.866H1021.48V127.956Z" stroke="white" stroke-width="2" stroke-miterlimit="10" stroke-linecap="round" stroke-linejoin="round"/>
<path d="M1390.21 286.573V262.592C1381.05 260.963 1360.28 257.563 1333.88 254.764C1323.64 214.774 1307.45 148.713 1306.47 127.673C1305.06 96.7854 1313.97 36.9944 1313.97 36.9944L1303.64 49.4272C1303.64 49.4272 1302.63 59.664 1301.87 74.293H1289.05C1288.3 59.6286 1287.29 49.4272 1287.29 49.4272L1276.95 36.9944C1276.95 36.9944 1285.87 96.7854 1284.45 127.673C1283.51 148.005 1268.39 210.275 1258.11 250.549C1241.39 250.585 1224.56 251.435 1208.49 253.347V246.299L1174.12 242.473V161.784L1132.41 158.1L1112.31 161.784V251.045H1093.98V235.247H1067.73V143.754H943.035V222.708H911.94V112.548H903.906V133.872H877.789V112.548H869.755V269.145L856.901 270.066L847.607 242.367V116.799H785.07V286.573H769.381V253.631H764.151V217.82H755.267V210.275H724.203V178.892H709.081V107.979H681.042V167.557H646.544V251.151H638.511L617.781 266.949V97.6356L601.304 95.6165L568.917 97.6356V224.267H557.26V262.557H532.844V218.21H518.194V91.5785H468.669V275.167H456.35V208.504H447.277V201.243H413.662V208.504H402.446V263.053H376.707L377.463 286.466H370.721L360.356 263.407H332.568L340.161 285.368L338.176 286.431H335.813L327.874 263.372H298.071L305.663 285.333L303.679 286.395H301.316L293.377 263.336H254.72L260.864 285.51L258.816 286.395H256.516L250.121 263.336H211.212L215.087 285.829L212.977 286.395H210.771L206.802 263.336H167.515V286.395H163.199V263.336H117.643L113.674 286.395H111.468L109.358 285.829L113.233 263.336H74.3244L68.2755 286.395H66.0072L63.9594 285.545L69.7877 263.336H39.8268L33.7779 286.395H31.5095L29.4617 285.545L35.2901 263.336H8.47961L1.58008 286.395" stroke="white" stroke-width="2" stroke-miterlimit="10" stroke-linecap="round" stroke-linejoin="round"/>
<path d="M1301.53 82.4043C1301.4 85.9819 1301.31 89.8073 1301.21 93.6683H1289.71C1289.65 89.8073 1289.56 85.9819 1289.4 82.4043H1301.53Z" stroke="white" stroke-width="2" stroke-miterlimit="10" stroke-linecap="round" stroke-linejoin="round"/>
<path d="M1301.24 113.044H1289.71C1289.81 109.254 1289.84 105.499 1289.81 101.78H1301.15C1301.15 105.499 1301.15 109.254 1301.24 113.044Z" stroke="white" stroke-width="2" stroke-miterlimit="10" stroke-linecap="round" stroke-linejoin="round"/>
<path d="M1289.43 121.191H1301.53C1301.72 125.016 1301.97 128.771 1302.28 132.455H1288.64C1288.99 128.735 1289.24 124.981 1289.43 121.191Z" stroke="white" stroke-width="2" stroke-miterlimit="10" stroke-linecap="round" stroke-linejoin="round"/>
<path d="M1287.29 144.498C1287.48 143.223 1287.63 141.877 1287.79 140.602H1303.17C1303.32 141.912 1303.48 143.258 1303.67 144.498C1307.29 169.01 1316.3 219.874 1322.35 253.595C1305.88 252.072 1287.73 250.903 1269.17 250.585C1275.19 216.899 1283.76 168.301 1287.29 144.498Z" stroke="white" stroke-width="2" stroke-miterlimit="10" stroke-linecap="round" stroke-linejoin="round"/>
<path d="M258.943 228.021L268.426 168.301C285.344 165.042 299.679 163.271 311.84 162.598L298.923 228.021H258.943Z" stroke="white" stroke-width="2" stroke-miterlimit="10" stroke-linecap="round" stroke-linejoin="round"/>
<path d="M303.332 228.021L316.28 162.421C328.378 161.996 338.145 162.669 346.021 164.05L333.388 228.057H303.332V228.021Z" stroke="white" stroke-width="2" stroke-miterlimit="10" stroke-linecap="round" stroke-linejoin="round"/>
<path d="M213.324 233.441H253.682L249.775 258.058H210.898L213.324 233.441Z" stroke="white" stroke-width="2" stroke-miterlimit="10" stroke-linecap="round" stroke-linejoin="round"/>
<path d="M209.513 228.021H167.518V191.573C182.86 187.889 198.55 184.099 214.208 180.38L209.513 228.021Z" stroke="white" stroke-width="2" stroke-miterlimit="10" stroke-linecap="round" stroke-linejoin="round"/>
<path d="M327.466 258.058H297.41L302.262 233.441H332.317L327.466 258.058Z" stroke="white" stroke-width="2" stroke-miterlimit="10" stroke-linecap="round" stroke-linejoin="round"/>
<path d="M337.83 228.021L350.306 164.901C376.203 170.745 378.471 184.347 378.471 184.347L367.444 228.057H337.83V228.021Z" stroke="white" stroke-width="2" stroke-miterlimit="10" stroke-linecap="round" stroke-linejoin="round"/>
<path d="M206.552 258.058H167.518V233.441H208.978L206.552 258.058Z" stroke="white" stroke-width="2" stroke-miterlimit="10" stroke-linecap="round" stroke-linejoin="round"/>
<path d="M258.092 233.441H297.82L292.968 258.058H254.186L258.092 233.441Z" stroke="white" stroke-width="2" stroke-miterlimit="10" stroke-linecap="round" stroke-linejoin="round"/>
<path d="M359.853 258.058H331.908L336.76 233.441H366.091L359.853 258.058Z" stroke="white" stroke-width="2" stroke-miterlimit="10" stroke-linecap="round" stroke-linejoin="round"/>
<path d="M213.859 228.021L218.68 179.352C231.502 176.342 244.324 173.402 256.926 170.674C259.321 170.143 261.589 169.718 263.889 169.257L254.563 228.057H213.859V228.021Z" stroke="white" stroke-width="2" stroke-miterlimit="10" stroke-linecap="round" stroke-linejoin="round"/>
<path d="M163.2 228.021H114.935L112.572 204.183C128.64 200.782 145.652 196.815 163.2 192.6V228.021Z" stroke="white" stroke-width="2" stroke-miterlimit="10" stroke-linecap="round" stroke-linejoin="round"/>
<path d="M74.6724 258.058L70.9863 233.441H111.123L113.549 258.058H74.6724Z" stroke="white" stroke-width="2" stroke-miterlimit="10" stroke-linecap="round" stroke-linejoin="round"/>
<path d="M110.586 228.021H70.1656L67.8027 212.4C80.1841 210.629 93.7941 208.114 108.318 205.104L110.586 228.021Z" stroke="white" stroke-width="2" stroke-miterlimit="10" stroke-linecap="round" stroke-linejoin="round"/>
<path d="M5.14037 228.021L1.54883 199.613C3.3446 209.461 13.4261 214.03 29.2729 214.915L31.2577 228.021H5.14037Z" stroke="white" stroke-width="2" stroke-miterlimit="10" stroke-linecap="round" stroke-linejoin="round"/>
<path d="M6.84277 201.384C5.99214 199.826 -6.13717 171.701 65.536 179.919C136.989 188.137 155.86 190.085 155.986 190.085C83.6827 207.194 16.4202 218.847 6.84277 201.384Z" stroke="white" stroke-width="2" stroke-miterlimit="10" stroke-linecap="round" stroke-linejoin="round"/>
<path d="M40.1743 258.058L36.4883 233.441H66.5753L70.2928 258.058H40.1743Z" stroke="white" stroke-width="2" stroke-miterlimit="10" stroke-linecap="round" stroke-linejoin="round"/>
<path d="M65.7571 228.021H35.6701L33.7168 215.092C42.3176 215.234 52.3361 214.455 63.4887 213.003L65.7571 228.021Z" stroke="white" stroke-width="2" stroke-miterlimit="10" stroke-linecap="round" stroke-linejoin="round"/>
<path d="M117.897 258.058L115.471 233.441H163.2V258.058H117.897Z" stroke="white" stroke-width="2" stroke-miterlimit="10" stroke-linecap="round" stroke-linejoin="round"/>
</g>
<defs>
<clipPath id="clip0">
<rect width="1392" height="287" fill="white"/>
</clipPath>
</defs>
</svg>
