<svg width="1390" height="257" viewBox="0 0 1390 257" fill="none" xmlns="http://www.w3.org/2000/svg">
<path d="M1389 255.5V228C1379.83 226.371 1370.22 222.563 1343.82 219.764C1333.58 179.774 1317.39 113.713 1316.41 92.6729C1315 61.7855 1323.91 1.99451 1323.91 1.99451L1313.58 14.4273C1313.58 14.4273 1312.57 24.6641 1311.81 39.2931H1298.99C1298.23 24.6287 1297.23 14.4273 1297.23 14.4273L1286.89 1.99451C1286.89 1.99451 1295.81 61.7855 1294.39 92.6729C1293.45 113.005 1278.32 175.275 1268.05 215.549C1251.32 215.585 1234.5 216.435 1218.43 218.347V211.299L1184.06 207.473V126.784L1142.35 123.1L1122.25 126.784V216.045H1103.91V200.247H1077.67V108.754H952.975V187.708H921.88V77.548H913.846V98.8716H887.729V77.548H879.695V234.145L866.841 235.066L857.547 207.367V81.7986H795.01V251.573H779.321V218.631H774.091V182.82H765.207V175.275H734.143V143.892H719.021V72.9787H690.982V132.557H656.484V216.151H648.451L627.72 231.949V62.6357L611.243 60.6166L578.857 62.6357V189.267H567.2V227.557H542.784V183.21H528.134V56.5786H478.609V240.167H466.29V173.504H457.217V166.243H423.601V173.504H412.386V228.053H386.646L387.403 251.466H380.661L370.295 228.407H342.508L350.101 250.368L348.116 251.431H345.753L337.814 228.372H308.011L315.603 250.333L313.618 251.395H311.256L303.316 228.336H264.66L270.804 250.51L268.756 251.395H266.456L260.061 228.336H221.152L225.027 250.829L222.916 251.395H220.711L216.742 228.336H177.455V251.395H173.139V228.336H127.583L123.614 251.395H121.408L119.298 250.829L123.173 228.336H84.2643L78.2154 251.395H75.947L73.8992 250.545L79.7276 228.336H49.7666L43.7177 251.395H41.4494L39.4016 250.545L45.23 228.336H18.4195L11.5199 251.395H1" fill="#293D3D" fill-opacity="0.75"/>
<path d="M1389 255.5V228C1379.83 226.371 1370.22 222.563 1343.82 219.764C1333.58 179.774 1317.39 113.713 1316.41 92.6729C1315 61.7855 1323.91 1.99451 1323.91 1.99451L1313.58 14.4273C1313.58 14.4273 1312.57 24.6641 1311.81 39.2931H1298.99C1298.23 24.6287 1297.23 14.4273 1297.23 14.4273L1286.89 1.99451C1286.89 1.99451 1295.81 61.7855 1294.39 92.6729C1293.45 113.005 1278.32 175.275 1268.05 215.549C1251.32 215.585 1234.5 216.435 1218.43 218.347V211.299L1184.06 207.473V126.784L1142.35 123.1L1122.25 126.784V216.045H1103.91V200.247H1077.67V108.754H952.975V187.708H921.88V77.548H913.846V98.8716H887.729V77.548H879.695V234.145L866.841 235.066L857.547 207.367V81.7986H795.01V251.573H779.321V218.631H774.091V182.82H765.207V175.275H734.143V143.892H719.021V72.9787H690.982V132.557H656.484V216.151H648.451L627.72 231.949V62.6357L611.243 60.6166L578.857 62.6357V189.267H567.2V227.557H542.784V183.21H528.134V56.5786H478.609V240.167H466.29V173.504H457.217V166.243H423.601V173.504H412.386V228.053H386.646L387.403 251.466H380.661L370.295 228.407H342.508L350.101 250.368L348.116 251.431H345.753L337.814 228.372H308.011L315.603 250.333L313.618 251.395H311.256L303.316 228.336H264.66L270.804 250.51L268.756 251.395H266.456L260.061 228.336H221.152L225.027 250.829L222.916 251.395H220.711L216.742 228.336H177.455V251.395H173.139V228.336H127.583L123.614 251.395H121.408L119.298 250.829L123.173 228.336H84.2643L78.2154 251.395H75.947L73.8992 250.545L79.7276 228.336H49.7666L43.7177 251.395H41.4494L39.4016 250.545L45.23 228.336H18.4195L11.5199 251.395H1" stroke="white" stroke-width="2" stroke-miterlimit="10" stroke-linecap="round" stroke-linejoin="round"/>
</svg>
