<svg width="1580" height="288" viewBox="0 0 1580 288" fill="none" xmlns="http://www.w3.org/2000/svg">
<path d="M523.403 86.7258H539.974V82.9003H545.96V68.3068H539.974V64.1271H545.96V56.8303H539.974H537.265V1.53772H526.112V56.8303H523.403H518.394V64.1271H523.403V68.3068H518.394V82.9003H523.403V86.7258Z" fill="#293D3D" stroke="white" stroke-width="2" stroke-miterlimit="10" stroke-linecap="round" stroke-linejoin="round"/>
<path d="M862.993 101.001H829.566V111.91H862.993V101.001Z" fill="#293D3D" stroke="white" stroke-width="2" stroke-miterlimit="10" stroke-linecap="round" stroke-linejoin="round"/>
<path d="M1051.42 127.956H1019.29V138.866H1051.42V127.956Z" fill="#293D3D" stroke="white" stroke-width="2" stroke-miterlimit="10" stroke-linecap="round" stroke-linejoin="round"/>
<path d="M1579 286.502V275.592H1569.52L1560.47 251.364L1551.43 275.592H1537.48V188.491L1520.12 182.895L1481.43 186.72V261.707H1461.99V233.051L1420.15 243.677V262.592C1410.98 260.963 1390.22 257.563 1363.82 254.764C1353.58 214.774 1337.39 148.713 1336.41 127.673C1335 96.7856 1343.91 36.9945 1343.91 36.9945L1333.58 49.4273C1333.58 49.4273 1332.57 59.6641 1331.81 74.2931H1318.99C1318.23 59.6287 1317.23 49.4273 1317.23 49.4273L1306.89 36.9945C1306.89 36.9945 1315.81 96.7856 1314.39 127.673C1313.45 148.005 1298.32 210.275 1288.05 250.549C1271.32 250.585 1254.5 251.435 1238.43 253.347V246.299L1204.06 242.473V161.784L1162.35 158.1L1142.25 161.784V251.045H1123.91V235.247H1097.67V143.754H972.975V222.708H941.88V112.548H933.846V133.872H907.729V112.548H899.695V269.145L886.841 270.066L877.547 242.367V116.799H815.01V286.573H799.321V253.631H794.091V217.82H785.207V210.275H754.143V178.892H739.021V107.979H710.982V167.557H676.484V251.151H668.45L647.72 266.949V97.6356L631.243 95.6166L598.857 97.6356V224.267H587.2V262.557H562.784V218.21H548.134V91.5786H498.609V275.167H486.29V208.504H477.217V201.243H443.601V208.504H432.386V263.053H406.646L407.403 286.466H400.661L390.295 263.407H362.508L370.101 285.368L368.116 286.431H365.753L357.814 263.372H328.011L335.603 285.333L333.619 286.395H331.256L323.316 263.336H284.66L290.804 285.51L288.756 286.395H286.456L280.061 263.336H241.152L245.027 285.829L242.916 286.395H240.711L236.742 263.336H197.455V286.395H193.139V263.336H147.583L143.614 286.395H141.408L139.298 285.829L143.173 263.336H104.264L98.2154 286.395H95.947L93.8992 285.545L99.7276 263.336H69.7666L63.7177 286.395H61.4494L59.4016 285.545L65.23 263.336H38.4195L31.5199 286.395H12.8691" fill="#293D3D" fill-opacity="0.75"/>
<path d="M1579 286.502V275.592H1569.52L1560.47 251.364L1551.43 275.592H1537.48V188.491L1520.12 182.895L1481.43 186.72V261.707H1461.99V233.051L1420.15 243.677V262.592C1410.98 260.963 1390.22 257.563 1363.82 254.764C1353.58 214.774 1337.39 148.713 1336.41 127.673C1335 96.7856 1343.91 36.9945 1343.91 36.9945L1333.58 49.4273C1333.58 49.4273 1332.57 59.6641 1331.81 74.2931H1318.99C1318.23 59.6287 1317.23 49.4273 1317.23 49.4273L1306.89 36.9945C1306.89 36.9945 1315.81 96.7856 1314.39 127.673C1313.45 148.005 1298.32 210.275 1288.05 250.549C1271.32 250.585 1254.5 251.435 1238.43 253.347V246.299L1204.06 242.473V161.784L1162.35 158.1L1142.25 161.784V251.045H1123.91V235.247H1097.67V143.754H972.975V222.708H941.88V112.548H933.846V133.872H907.729V112.548H899.695V269.145L886.841 270.066L877.547 242.367V116.799H815.01V286.573H799.321V253.631H794.091V217.82H785.207V210.275H754.143V178.892H739.021V107.979H710.982V167.557H676.484V251.151H668.45L647.72 266.949V97.6356L631.243 95.6166L598.857 97.6356V224.267H587.2V262.557H562.784V218.21H548.134V91.5786H498.609V275.167H486.29V208.504H477.217V201.243H443.601V208.504H432.386V263.053H406.646L407.403 286.466H400.661L390.295 263.407H362.508L370.101 285.368L368.116 286.431H365.753L357.814 263.372H328.011L335.603 285.333L333.619 286.395H331.256L323.316 263.336H284.66L290.804 285.51L288.756 286.395H286.456L280.061 263.336H241.152L245.027 285.829L242.916 286.395H240.711L236.742 263.336H197.455V286.395H193.139V263.336H147.583L143.614 286.395H141.408L139.298 285.829L143.173 263.336H104.264L98.2154 286.395H95.947L93.8992 285.545L99.7276 263.336H69.7666L63.7177 286.395H61.4494L59.4016 285.545L65.23 263.336H38.4195L31.5199 286.395H12.8691" stroke="white" stroke-width="2" stroke-miterlimit="10" stroke-linecap="round" stroke-linejoin="round"/>
<path d="M1331.47 82.4044C1331.34 85.982 1331.25 89.8074 1331.15 93.6684H1319.65C1319.59 89.8074 1319.5 85.982 1319.34 82.4044H1331.47Z" fill="#293D3D" stroke="white" stroke-width="2" stroke-miterlimit="10" stroke-linecap="round" stroke-linejoin="round"/>
<path d="M1331.18 113.044H1319.65C1319.75 109.254 1319.78 105.499 1319.75 101.78H1331.09C1331.09 105.499 1331.09 109.254 1331.18 113.044Z" fill="#293D3D" stroke="white" stroke-width="2" stroke-miterlimit="10" stroke-linecap="round" stroke-linejoin="round"/>
<path d="M1319.37 121.191H1331.47C1331.66 125.016 1331.91 128.771 1332.22 132.455H1318.58C1318.93 128.735 1319.18 124.981 1319.37 121.191Z" fill="#293D3D" stroke="white" stroke-width="2" stroke-miterlimit="10" stroke-linecap="round" stroke-linejoin="round"/>
<path d="M1317.23 144.498C1317.42 143.223 1317.57 141.877 1317.73 140.602H1333.11C1333.26 141.912 1333.42 143.258 1333.61 144.498C1337.23 169.01 1346.24 219.874 1352.29 253.595C1335.82 252.072 1317.67 250.903 1299.11 250.585C1305.13 216.899 1313.7 168.301 1317.23 144.498Z" fill="#293D3D" stroke="white" stroke-width="2" stroke-miterlimit="10" stroke-linecap="round" stroke-linejoin="round"/>
<path d="M288.883 228.021L298.366 168.301C315.284 165.042 329.618 163.271 341.779 162.598L328.862 228.021H288.883Z" fill="#293D3D" stroke="white" stroke-width="2" stroke-miterlimit="10" stroke-linecap="round" stroke-linejoin="round"/>
<path d="M333.272 228.021L346.221 162.421C358.319 161.996 368.085 162.669 375.961 164.05L363.328 228.057H333.272V228.021Z" fill="#293D3D" stroke="white" stroke-width="2" stroke-miterlimit="10" stroke-linecap="round" stroke-linejoin="round"/>
<path d="M243.264 233.441H283.621L279.715 258.058H240.838L243.264 233.441Z" fill="#293D3D" stroke="white" stroke-width="2" stroke-miterlimit="10" stroke-linecap="round" stroke-linejoin="round"/>
<path d="M239.452 228.021H197.456V191.573C212.799 187.889 228.488 184.099 244.146 180.38L239.452 228.021Z" fill="#293D3D" stroke="white" stroke-width="2" stroke-miterlimit="10" stroke-linecap="round" stroke-linejoin="round"/>
<path d="M357.405 258.058H327.35L332.201 233.441H362.257L357.405 258.058Z" fill="#293D3D" stroke="white" stroke-width="2" stroke-miterlimit="10" stroke-linecap="round" stroke-linejoin="round"/>
<path d="M367.771 228.021L380.246 164.901C406.143 170.745 408.412 184.347 408.412 184.347L397.385 228.057H367.771V228.021Z" fill="#293D3D" stroke="white" stroke-width="2" stroke-miterlimit="10" stroke-linecap="round" stroke-linejoin="round"/>
<path d="M236.49 258.058H197.456V233.441H238.916L236.49 258.058Z" fill="#293D3D" stroke="white" stroke-width="2" stroke-miterlimit="10" stroke-linecap="round" stroke-linejoin="round"/>
<path d="M288.032 233.441H327.759L322.907 258.058H284.125L288.032 233.441Z" fill="#293D3D" stroke="white" stroke-width="2" stroke-miterlimit="10" stroke-linecap="round" stroke-linejoin="round"/>
<path d="M389.791 258.058H361.847L366.698 233.441H396.029L389.791 258.058Z" fill="#293D3D" stroke="white" stroke-width="2" stroke-miterlimit="10" stroke-linecap="round" stroke-linejoin="round"/>
<path d="M243.799 228.021L248.619 179.352C261.441 176.342 274.264 173.402 286.866 170.674C289.26 170.143 291.528 169.718 293.828 169.257L284.503 228.057H243.799V228.021Z" fill="#293D3D" stroke="white" stroke-width="2" stroke-miterlimit="10" stroke-linecap="round" stroke-linejoin="round"/>
<path d="M193.14 228.021H144.875L142.512 204.183C158.579 200.782 175.592 196.815 193.14 192.6V228.021Z" fill="#293D3D" stroke="white" stroke-width="2" stroke-miterlimit="10" stroke-linecap="round" stroke-linejoin="round"/>
<path d="M104.612 258.058L100.926 233.441H141.063L143.489 258.058H104.612Z" fill="#293D3D" stroke="white" stroke-width="2" stroke-miterlimit="10" stroke-linecap="round" stroke-linejoin="round"/>
<path d="M140.527 228.021H100.106L97.7432 212.4C110.125 210.629 123.735 208.114 138.258 205.104L140.527 228.021Z" fill="#293D3D" stroke="white" stroke-width="2" stroke-miterlimit="10" stroke-linecap="round" stroke-linejoin="round"/>
<path d="M35.0808 228.021L31.4893 199.613C33.285 209.461 43.3665 214.03 59.2134 214.915L61.1982 228.021H35.0808Z" fill="#293D3D" stroke="white" stroke-width="2" stroke-miterlimit="10" stroke-linecap="round" stroke-linejoin="round"/>
<path d="M36.7812 201.384C35.9306 199.826 23.8013 171.701 95.4745 179.919C166.927 188.137 185.799 190.085 185.925 190.085C113.621 207.194 46.3587 218.847 36.7812 201.384Z" fill="#293D3D" stroke="white" stroke-width="2" stroke-miterlimit="10" stroke-linecap="round" stroke-linejoin="round"/>
<path d="M70.1138 258.058L66.4277 233.441H96.5147L100.232 258.058H70.1138Z" fill="#293D3D" stroke="white" stroke-width="2" stroke-miterlimit="10" stroke-linecap="round" stroke-linejoin="round"/>
<path d="M95.6955 228.021H65.6086L63.6553 215.092C72.2561 215.234 82.2745 214.455 93.4272 213.003L95.6955 228.021Z" fill="#293D3D" stroke="white" stroke-width="2" stroke-miterlimit="10" stroke-linecap="round" stroke-linejoin="round"/>
<path d="M147.836 258.058L145.41 233.441H193.14V258.058H147.836Z" fill="#293D3D" stroke="white" stroke-width="2" stroke-miterlimit="10" stroke-linecap="round" stroke-linejoin="round"/>
<path d="M62.0169 233.441L65.7344 258.058H38.8924L35.7734 233.441H62.0169Z" fill="#293D3D" stroke="white" stroke-width="2" stroke-miterlimit="10" stroke-linecap="round" stroke-linejoin="round"/>
<path d="M512.464 86.7258H529.036V82.9003H535.022V68.3068H529.036V64.1271H535.022V56.8303H529.036H526.326V1.53772H515.174V56.8303H512.464H507.455V64.1271H512.464V68.3068H507.455V82.9003H512.464V86.7258Z" stroke="white" stroke-width="2" stroke-miterlimit="10" stroke-linecap="round" stroke-linejoin="round"/>
<path d="M852.053 101.001H818.627V111.91H852.053V101.001Z" stroke="white" stroke-width="2" stroke-miterlimit="10" stroke-linecap="round" stroke-linejoin="round"/>
<path d="M1040.48 127.956H1008.35V138.866H1040.48V127.956Z" stroke="white" stroke-width="2" stroke-miterlimit="10" stroke-linecap="round" stroke-linejoin="round"/>
<path d="M1568.06 286.502V275.592H1558.58L1549.54 251.364L1540.49 275.592H1526.54V188.491L1509.18 182.895L1470.49 186.72V261.707H1451.05V233.051L1409.21 243.677V262.592C1400.05 260.963 1379.28 257.563 1352.88 254.764C1342.64 214.774 1326.45 148.713 1325.47 127.673C1324.06 96.7856 1332.97 36.9945 1332.97 36.9945L1322.64 49.4273C1322.64 49.4273 1321.63 59.6641 1320.88 74.2931H1308.05C1307.3 59.6287 1306.29 49.4273 1306.29 49.4273L1295.95 36.9945C1295.95 36.9945 1304.87 96.7856 1303.45 127.673C1302.51 148.005 1287.39 210.275 1277.12 250.549C1260.39 250.585 1243.56 251.435 1227.5 253.347V246.299L1193.12 242.473V161.784L1151.41 158.1L1131.31 161.784V251.045H1112.98V235.247H1086.73V143.754H962.036V222.708H930.941V112.548H922.908V133.872H896.79V112.548H888.757V269.145L875.903 270.066L866.609 242.367V116.799H804.072V286.573H788.383V253.631H783.153V217.82H774.268V210.275H743.205V178.892H728.083V107.979H700.043V167.557H665.546V251.151H657.512L636.782 266.949V97.6356L620.305 95.6166L587.918 97.6356V224.267H576.261V262.557H551.845V218.21H537.196V91.5786H487.67V275.167H475.352V208.504H466.278V201.243H432.663V208.504H421.447V263.053H395.708L396.464 286.466H389.722L379.357 263.407H351.57L359.162 285.368L357.178 286.431H354.815L346.876 263.372H317.072L324.665 285.333L322.68 286.395H320.317L312.378 263.336H273.722L279.865 285.51L277.817 286.395H275.517L269.122 263.336H230.214L234.089 285.829L231.978 286.395H229.773L225.803 263.336H186.517V286.395H182.201V263.336H136.645L132.675 286.395H130.47L128.359 285.829L132.234 263.336H93.3258L87.2769 286.395H85.0086L82.9608 285.545L88.7891 263.336H58.8282L52.7793 286.395H50.5109L48.4631 285.545L54.2915 263.336H27.481L20.5814 286.395H1.93066" stroke="white" stroke-width="2" stroke-miterlimit="10" stroke-linecap="round" stroke-linejoin="round"/>
<path d="M1320.53 82.4044C1320.4 85.982 1320.31 89.8074 1320.21 93.6684H1308.71C1308.65 89.8074 1308.56 85.982 1308.4 82.4044H1320.53Z" stroke="white" stroke-width="2" stroke-miterlimit="10" stroke-linecap="round" stroke-linejoin="round"/>
<path d="M1320.24 113.044H1308.71C1308.81 109.254 1308.84 105.499 1308.81 101.78H1320.15C1320.15 105.499 1320.15 109.254 1320.24 113.044Z" stroke="white" stroke-width="2" stroke-miterlimit="10" stroke-linecap="round" stroke-linejoin="round"/>
<path d="M1308.43 121.191H1320.53C1320.72 125.016 1320.97 128.771 1321.28 132.455H1307.64C1307.99 128.735 1308.24 124.981 1308.43 121.191Z" stroke="white" stroke-width="2" stroke-miterlimit="10" stroke-linecap="round" stroke-linejoin="round"/>
<path d="M1306.29 144.498C1306.48 143.223 1306.63 141.877 1306.79 140.602H1322.17C1322.32 141.912 1322.48 143.258 1322.67 144.498C1326.29 169.01 1335.3 219.874 1341.35 253.595C1324.88 252.072 1306.73 250.903 1288.17 250.585C1294.19 216.899 1302.76 168.301 1306.29 144.498Z" stroke="white" stroke-width="2" stroke-miterlimit="10" stroke-linecap="round" stroke-linejoin="round"/>
<path d="M277.943 228.021L287.426 168.301C304.344 165.042 318.679 163.271 330.84 162.598L317.923 228.021H277.943Z" stroke="white" stroke-width="2" stroke-miterlimit="10" stroke-linecap="round" stroke-linejoin="round"/>
<path d="M322.333 228.021L335.281 162.421C347.379 161.996 357.146 162.669 365.022 164.05L352.389 228.057H322.333V228.021Z" stroke="white" stroke-width="2" stroke-miterlimit="10" stroke-linecap="round" stroke-linejoin="round"/>
<path d="M232.325 233.441H272.683L268.776 258.058H229.899L232.325 233.441Z" stroke="white" stroke-width="2" stroke-miterlimit="10" stroke-linecap="round" stroke-linejoin="round"/>
<path d="M228.512 228.021H186.517V191.573C201.859 187.889 217.549 184.099 233.207 180.38L228.512 228.021Z" stroke="white" stroke-width="2" stroke-miterlimit="10" stroke-linecap="round" stroke-linejoin="round"/>
<path d="M346.466 258.058H316.41L321.262 233.441H351.317L346.466 258.058Z" stroke="white" stroke-width="2" stroke-miterlimit="10" stroke-linecap="round" stroke-linejoin="round"/>
<path d="M356.831 228.021L369.307 164.901C395.204 170.745 397.472 184.347 397.472 184.347L386.445 228.057H356.831V228.021Z" stroke="white" stroke-width="2" stroke-miterlimit="10" stroke-linecap="round" stroke-linejoin="round"/>
<path d="M225.551 258.058H186.517V233.441H227.977L225.551 258.058Z" stroke="white" stroke-width="2" stroke-miterlimit="10" stroke-linecap="round" stroke-linejoin="round"/>
<path d="M277.092 233.441H316.82L311.968 258.058H273.186L277.092 233.441Z" stroke="white" stroke-width="2" stroke-miterlimit="10" stroke-linecap="round" stroke-linejoin="round"/>
<path d="M378.853 258.058H350.908L355.76 233.441H385.091L378.853 258.058Z" stroke="white" stroke-width="2" stroke-miterlimit="10" stroke-linecap="round" stroke-linejoin="round"/>
<path d="M232.859 228.021L237.68 179.352C250.502 176.342 263.324 173.402 275.926 170.674C278.321 170.143 280.589 169.718 282.889 169.257L273.563 228.057H232.859V228.021Z" stroke="white" stroke-width="2" stroke-miterlimit="10" stroke-linecap="round" stroke-linejoin="round"/>
<path d="M182.2 228.021H133.935L131.572 204.183C147.64 200.782 164.652 196.815 182.2 192.6V228.021Z" stroke="white" stroke-width="2" stroke-miterlimit="10" stroke-linecap="round" stroke-linejoin="round"/>
<path d="M93.6724 258.058L89.9863 233.441H130.123L132.549 258.058H93.6724Z" stroke="white" stroke-width="2" stroke-miterlimit="10" stroke-linecap="round" stroke-linejoin="round"/>
<path d="M129.587 228.021H89.1666L86.8037 212.4C99.1851 210.629 112.795 208.114 127.319 205.104L129.587 228.021Z" stroke="white" stroke-width="2" stroke-miterlimit="10" stroke-linecap="round" stroke-linejoin="round"/>
<path d="M24.1413 228.021L20.5498 199.613C22.3456 209.461 32.4271 214.03 48.2739 214.915L50.2587 228.021H24.1413Z" stroke="white" stroke-width="2" stroke-miterlimit="10" stroke-linecap="round" stroke-linejoin="round"/>
<path d="M25.8428 201.384C24.9921 199.826 12.8628 171.701 84.536 179.919C155.989 188.137 174.86 190.085 174.986 190.085C102.683 207.194 35.4202 218.847 25.8428 201.384Z" stroke="white" stroke-width="2" stroke-miterlimit="10" stroke-linecap="round" stroke-linejoin="round"/>
<path d="M59.1743 258.058L55.4883 233.441H85.5753L89.2928 258.058H59.1743Z" stroke="white" stroke-width="2" stroke-miterlimit="10" stroke-linecap="round" stroke-linejoin="round"/>
<path d="M84.7571 228.021H54.6701L52.7168 215.092C61.3176 215.234 71.3361 214.455 82.4887 213.003L84.7571 228.021Z" stroke="white" stroke-width="2" stroke-miterlimit="10" stroke-linecap="round" stroke-linejoin="round"/>
<path d="M136.897 258.058L134.471 233.441H182.2V258.058H136.897Z" stroke="white" stroke-width="2" stroke-miterlimit="10" stroke-linecap="round" stroke-linejoin="round"/>
</svg>
