<svg width="89" height="78" viewBox="0 0 89 78" fill="none" xmlns="http://www.w3.org/2000/svg">
<rect x="0.5" y="0.710449" width="88" height="76" stroke="white"/>
<path d="M6.56419 66.5722C6.08051 66.5722 5.61662 66.3053 5.2746 65.8303C4.93257 65.3553 4.74043 64.7111 4.74043 64.0393V8.31561C4.74043 7.64384 4.93257 6.99959 5.2746 6.52458C5.61662 6.04957 6.08051 5.78271 6.56419 5.78271H83.1626C83.6463 5.78271 84.1101 6.04957 84.4522 6.52458C84.7942 6.99959 84.9863 7.64384 84.9863 8.31561V64.0393C84.9863 64.7111 84.7942 65.3553 84.4522 65.8303C84.1101 66.3053 83.6463 66.5722 83.1626 66.5722H6.56419ZM52.1585 61.5064V48.8419H48.5109V61.5064H52.1585ZM81.3388 10.8485H8.38797V61.5064H28.4494V41.2432H26.6257C26.142 41.2432 25.6781 40.9764 25.3361 40.5014C24.994 40.0264 24.8019 39.3821 24.8019 38.7103V31.1117C24.8019 30.4399 24.994 29.7956 25.3361 29.3206C25.6781 28.8456 26.142 28.5788 26.6257 28.5788H28.7782L30.3085 17.9504C30.3912 17.3762 30.6146 16.8596 30.9407 16.4884C31.2668 16.1171 31.6754 15.9143 32.097 15.9143H57.6298C58.0514 15.9143 58.46 16.1171 58.7861 16.4884C59.1121 16.8596 59.3355 17.3762 59.4182 17.9504L60.9486 28.5788H63.1011C63.5848 28.5788 64.0487 28.8456 64.3907 29.3206C64.7327 29.7956 64.9249 30.4399 64.9249 31.1117V38.7103C64.9249 39.3821 64.7327 40.0264 64.3907 40.5014C64.0487 40.9764 63.5848 41.2432 63.1011 41.2432H61.2773V61.5064H81.3388V10.8485ZM61.2773 36.1775V33.6446H28.4494V36.1775H61.2773ZM57.229 28.5788L56.1347 20.9801H33.5925L32.4982 28.5788H57.229ZM57.6298 41.2432H32.097V61.5064H44.8634V46.309C44.8634 45.6373 45.0555 44.993 45.3975 44.518C45.7396 44.043 46.2035 43.7761 46.6871 43.7761H53.9822C54.4659 43.7761 54.9298 44.043 55.2718 44.518C55.6139 44.993 55.806 45.6373 55.806 46.309V61.5064H57.6298V41.2432Z" fill="white"/>
</svg>
