<svg width="68" height="67" viewBox="0 0 68 67" fill="none" xmlns="http://www.w3.org/2000/svg">
<g clip-path="url(#clip0)">
<path d="M51.0019 37.3354V7.08541C50.9973 3.29041 47.8287 0.214961 43.9187 0.210449H12.752C12.3762 0.210578 12.016 0.355469 11.7504 0.613281L0.416992 11.6134C0.151367 11.8712 0.00195312 12.2209 0.00195312 12.5854V59.3355C0.00660156 63.1305 3.17524 66.2059 7.08524 66.2104H43.9185C47.8287 66.2059 50.9972 63.1305 51.0018 59.3355V56.5855H48.1685V59.3355C48.1685 61.6137 46.2657 63.4605 43.9185 63.4605H7.08524C4.73805 63.4605 2.83524 61.6137 2.83524 59.3355V13.1547L13.3385 2.96041H43.9187C46.2659 2.96041 48.1687 4.80725 48.1687 7.08541V37.3354H51.0019Z" fill="white"/>
<path d="M11.334 1.58569V9.83569C11.334 10.5951 10.6997 11.2107 9.91727 11.2107H7.08398V13.9607H9.91727C12.2645 13.9607 14.1673 12.1139 14.1673 9.83569V1.58569H11.334Z" fill="white"/>
<path d="M67.586 33.2959L63.6632 29.4885C63.1101 28.9517 62.2133 28.9517 61.66 29.4885L40.0827 50.4311C39.5297 50.968 39.5297 51.8384 40.0827 52.3754L44.0055 56.1828C44.2711 56.4408 44.6314 56.5856 45.007 56.5856C45.3828 56.5855 45.7429 56.4406 46.0086 56.1828L67.5858 35.2402C68.139 34.7033 68.139 33.8329 67.586 33.2959ZM45.007 53.2664L43.0875 51.4034L62.6615 32.405L64.5811 34.2681L45.007 53.2664Z" fill="white"/>
<path d="M42.4993 53.8357V51.0857H39.666V55.2107C39.666 55.9701 40.3003 56.5857 41.0827 56.5857H45.3327V53.8357H42.4993Z" fill="white"/>
<path d="M41.0833 5.71069H38.25V8.46065H41.0833C41.8657 8.46065 42.5 9.07631 42.5 9.83569V12.5856H45.3333V9.83569C45.3334 7.55753 43.4306 5.71069 41.0833 5.71069Z" fill="white"/>
<path d="M36.8333 19.4602H14.1667C13.3843 19.4602 12.75 20.0759 12.75 20.8352V40.0852C12.7489 40.611 13.0568 41.0913 13.5433 41.3227L23.3963 45.9977C24.0436 46.3566 24.7758 46.5462 25.5213 46.5478C26.2242 46.5522 26.9163 46.3783 27.5287 46.0431L37.4567 41.3227C37.9432 41.0913 38.2512 40.611 38.25 40.0852V20.8352C38.25 20.0759 37.6157 19.4602 36.8333 19.4602ZM35.4167 39.2272L26.2027 43.6121C25.7364 43.8592 25.169 43.8433 24.718 43.5708L15.5833 39.2272V22.2103H35.4166V39.2272H35.4167Z" fill="white"/>
<path d="M31.5822 26.9473L24.0837 34.2252L20.8352 31.0723L18.832 33.0166L23.082 37.1416C23.3477 37.3994 23.708 37.5444 24.0836 37.5444C24.4593 37.5443 24.8195 37.3994 25.0851 37.1416L33.5851 28.8916L31.5822 26.9473Z" fill="white"/>
<path d="M28.334 53.8354C27.5516 53.8354 26.9173 53.2198 26.9173 52.4604V49.7104H24.084V52.4604C24.084 54.7386 25.9868 56.5854 28.334 56.5854H36.834V53.8354H28.334Z" fill="white"/>
<path d="M35.4173 5.71069H32.584V8.46065H35.4173V5.71069Z" fill="white"/>
</g>
<defs>
<clipPath id="clip0">
<rect width="68" height="66" fill="white" transform="translate(0 0.210449)"/>
</clipPath>
</defs>
</svg>
