<svg width="76" height="79" viewBox="0 0 76 79" fill="none" xmlns="http://www.w3.org/2000/svg">
<circle cx="36" cy="36.3376" r="36" fill="#105AD1"/>
<circle cx="40" cy="42.6742" r="35.5" stroke="#105AD1"/>
<path d="M32.4289 51.3382C35.1382 49.1622 37.2609 47.3809 38.7969 45.9942C40.3329 44.5862 41.6235 43.1249 42.6689 41.6102C43.7355 40.0742 44.2689 38.5702 44.2689 37.0982C44.2689 35.7115 43.9275 34.6235 43.2449 33.8342C42.5835 33.0235 41.5062 32.6182 40.0129 32.6182C38.5622 32.6182 37.4315 33.0769 36.6209 33.9942C35.8315 34.8902 35.4049 36.0955 35.3409 37.6102H32.5249C32.6102 35.2209 33.3355 33.3755 34.7009 32.0742C36.0662 30.7729 37.8262 30.1222 39.9809 30.1222C42.1782 30.1222 43.9169 30.7302 45.1969 31.9462C46.4982 33.1622 47.1489 34.8369 47.1489 36.9702C47.1489 38.7409 46.6155 40.4689 45.5489 42.1542C44.5035 43.8182 43.3089 45.2902 41.9649 46.5702C40.6209 47.8289 38.9035 49.3009 36.8129 50.9862H47.8209V53.4182H32.4289V51.3382Z" fill="white"/>
</svg>
