<svg width="30" height="27" viewBox="0 0 30 27" fill="none" xmlns="http://www.w3.org/2000/svg">
<path d="M0.564453 19.1428V26.2717H9.40234V18.9963C9.40234 16.1969 9.77669 13.5927 10.5254 11.1838C11.3066 8.77498 12.4622 6.41496 13.9922 4.10376L9.06055 0.588135C7.69336 1.76001 6.48893 3.09465 5.44727 4.59204C4.4056 6.08944 3.52669 7.65194 2.81055 9.27954C2.06185 10.9397 1.49219 12.6161 1.10156 14.3088C0.74349 16.0015 0.564453 17.6129 0.564453 19.1428ZM16.4336 19.1428V26.2717H25.2715V18.9963C25.2715 16.1969 25.6458 13.5927 26.3945 11.1838C27.1758 8.77498 28.3314 6.41496 29.8613 4.10376L24.9297 0.588135C23.5625 1.76001 22.3581 3.09465 21.3164 4.59204C20.2747 6.08944 19.3958 7.65194 18.6797 9.27954C17.931 10.9397 17.3613 12.6161 16.9707 14.3088C16.6126 16.0015 16.4336 17.6129 16.4336 19.1428Z" fill="white"/>
</svg>
