<svg width="166" height="165" viewBox="0 0 166 165" fill="none" xmlns="http://www.w3.org/2000/svg">
<mask id="path-1-inside-1" fill="white">
<path fill-rule="evenodd" clip-rule="evenodd" d="M53.7645 111.301L66.9546 79.5748L94.8985 91.523L107.854 60.6558"/>
</mask>
<path d="M66.9546 79.5748L72.8518 65.7827L58.9205 59.826L53.1039 73.8164L66.9546 79.5748ZM94.8985 91.523L89.0013 105.315L102.885 111.252L108.73 97.3283L94.8985 91.523ZM67.6152 117.059L80.8052 85.3332L53.1039 73.8164L39.9138 105.542L67.6152 117.059ZM61.0574 93.367L89.0013 105.315L100.796 77.7309L72.8518 65.7827L61.0574 93.367ZM108.73 97.3283L121.685 66.4611L94.0233 54.8505L81.0674 85.7177L108.73 97.3283Z" fill="url(#paint0_linear)" mask="url(#path-1-inside-1)"/>
<mask id="path-3-inside-2" fill="white">
<ellipse cx="120.808" cy="16.6553" rx="13.4554" ry="13.4554" transform="rotate(-15 120.808 16.6553)"/>
</mask>
<path d="M119.316 17.055C119.095 16.231 119.584 15.3841 120.408 15.1633L128.172 44.141C143.352 40.0736 152.361 24.4704 148.293 9.29046L119.316 17.055ZM120.408 15.1633C121.232 14.9425 122.079 15.4315 122.3 16.2555L93.3217 24.0201C97.3892 39.2 112.992 48.2085 128.172 44.141L120.408 15.1633ZM122.3 16.2555C122.52 17.0795 122.031 17.9265 121.207 18.1472L113.443 -10.8305C98.2628 -6.76306 89.2543 8.84007 93.3217 24.0201L122.3 16.2555ZM121.207 18.1472C120.383 18.368 119.536 17.879 119.316 17.055L148.293 9.29046C144.226 -5.88951 128.623 -14.898 113.443 -10.8305L121.207 18.1472Z" fill="url(#paint1_linear)" mask="url(#path-3-inside-2)"/>
<mask id="path-5-inside-3" fill="white">
<path fill-rule="evenodd" clip-rule="evenodd" d="M84.5636 18.539L35.4229 31.7062C15.0611 37.1622 6.29947 54.9655 11.7554 75.3273L26.3985 129.976C31.8544 150.338 48.0798 161.38 68.6892 155.858L126.866 140.269C147.228 134.813 156.006 117.072 150.55 96.7099L137.797 49.1165"/>
</mask>
<path d="M80.6813 4.05015L31.5406 17.2173L39.3052 46.1951L88.4458 33.0279L80.6813 4.05015ZM31.5406 17.2173C17.7633 20.909 6.84715 29.1719 0.642683 40.9239C-5.4801 52.5211 -6.25798 66.056 -2.73349 79.2096L26.2443 71.445C24.3129 64.2368 25.1878 58.6891 27.1723 54.9303C29.0751 51.3261 32.7208 47.9594 39.3052 46.1951L31.5406 17.2173ZM-2.73349 79.2096L11.9096 133.858L40.8874 126.094L26.2443 71.445L-2.73349 79.2096ZM11.9096 133.858C15.4146 146.939 22.7522 158.302 33.8567 165.309C45.1257 172.42 58.7286 174.056 72.5714 170.346L64.8069 141.369C58.0404 143.182 53.2258 142.058 49.8659 139.938C46.3414 137.714 42.8383 133.375 40.8874 126.094L11.9096 133.858ZM72.5714 170.346L130.748 154.758L122.983 125.78L64.8069 141.369L72.5714 170.346ZM130.748 154.758C144.506 151.072 155.429 142.838 161.645 131.099C167.782 119.511 168.564 105.983 165.039 92.8277L136.061 100.592C137.992 107.799 137.112 113.323 135.133 117.059C133.234 120.646 129.587 124.011 122.983 125.78L130.748 154.758ZM165.039 92.8277L152.286 45.2343L123.308 52.9988L136.061 100.592L165.039 92.8277Z" fill="url(#paint2_linear)" mask="url(#path-5-inside-3)"/>
<defs>
<linearGradient id="paint0_linear" x1="76.2905" y1="69.1133" x2="85.3284" y2="102.843" gradientUnits="userSpaceOnUse">
<stop stop-color="#E1E5F0"/>
<stop offset="1" stop-color="#CCDDFF"/>
</linearGradient>
<linearGradient id="paint1_linear" x1="117.325" y1="3.65836" x2="124.29" y2="29.6522" gradientUnits="userSpaceOnUse">
<stop stop-color="#E1E5F0"/>
<stop offset="1" stop-color="#CCDDFF"/>
</linearGradient>
<linearGradient id="paint2_linear" x1="64.5112" y1="23.912" x2="97.7774" y2="148.063" gradientUnits="userSpaceOnUse">
<stop stop-color="#E1E5F0"/>
<stop offset="1" stop-color="#CCDDFF"/>
</linearGradient>
</defs>
</svg>
