<svg width="96" height="156" viewBox="0 0 96 156" fill="none" xmlns="http://www.w3.org/2000/svg">
<circle cx="9.83594" cy="2.05969" r="2" fill="white"/>
<circle cx="9.83594" cy="18.0597" r="2" fill="white"/>
<circle cx="9.83594" cy="34.0597" r="2" fill="white"/>
<circle cx="9.83594" cy="50.0597" r="2" fill="white"/>
<circle cx="9.83594" cy="66.0597" r="2" fill="white"/>
<circle cx="9.83594" cy="82.0597" r="2" fill="white"/>
<circle cx="9.83594" cy="98.0597" r="2" fill="white"/>
<circle cx="9.83594" cy="114.06" r="2" fill="white"/>
<circle cx="9.83594" cy="130.06" r="2" fill="white"/>
<circle cx="9.83594" cy="146.06" r="2" fill="white"/>
<circle cx="25.8359" cy="2.05969" r="2" fill="white"/>
<circle cx="25.8359" cy="18.0597" r="2" fill="white"/>
<circle cx="25.8359" cy="34.0597" r="2" fill="white"/>
<circle cx="25.8359" cy="50.0597" r="2" fill="white"/>
<circle cx="25.8359" cy="66.0597" r="2" fill="white"/>
<circle cx="25.8359" cy="82.0597" r="2" fill="white"/>
<circle cx="25.8359" cy="98.0597" r="2" fill="white"/>
<circle cx="25.8359" cy="114.06" r="2" fill="white"/>
<circle cx="25.8359" cy="130.06" r="2" fill="white"/>
<circle cx="25.8359" cy="146.06" r="2" fill="white"/>
<circle cx="41.8359" cy="2.05969" r="2" fill="white"/>
<circle cx="41.8359" cy="18.0597" r="2" fill="white"/>
<circle cx="41.8359" cy="34.0597" r="2" fill="white"/>
<circle cx="41.8359" cy="50.0597" r="2" fill="white"/>
<circle cx="41.8359" cy="66.0597" r="2" fill="white"/>
<circle cx="41.8359" cy="82.0597" r="2" fill="white"/>
<circle cx="41.8359" cy="98.0597" r="2" fill="white"/>
<circle cx="41.8359" cy="114.06" r="2" fill="white"/>
<circle cx="41.8359" cy="130.06" r="2" fill="white"/>
<circle cx="41.8359" cy="146.06" r="2" fill="white"/>
<circle cx="57.8359" cy="2.05969" r="2" fill="white"/>
<circle cx="57.8359" cy="18.0597" r="2" fill="white"/>
<circle cx="57.8359" cy="34.0597" r="2" fill="white"/>
<circle cx="57.8359" cy="50.0597" r="2" fill="white"/>
<circle cx="57.8359" cy="66.0597" r="2" fill="white"/>
<circle cx="57.8359" cy="82.0597" r="2" fill="white"/>
<circle cx="57.8359" cy="98.0597" r="2" fill="white"/>
<circle cx="57.8359" cy="114.06" r="2" fill="white"/>
<circle cx="57.8359" cy="130.06" r="2" fill="white"/>
<circle cx="57.8359" cy="146.06" r="2" fill="white"/>
<circle cx="73.8359" cy="2.05969" r="2" fill="white"/>
<circle cx="73.8359" cy="18.0597" r="2" fill="white"/>
<circle cx="73.8359" cy="34.0597" r="2" fill="white"/>
<circle cx="73.8359" cy="50.0597" r="2" fill="white"/>
<circle cx="73.8359" cy="66.0597" r="2" fill="white"/>
<circle cx="73.8359" cy="82.0597" r="2" fill="white"/>
<circle cx="73.8359" cy="98.0597" r="2" fill="white"/>
<circle cx="73.8359" cy="114.06" r="2" fill="white"/>
<circle cx="73.8359" cy="130.06" r="2" fill="white"/>
<circle cx="73.8359" cy="146.06" r="2" fill="white"/>
<circle cx="89.8359" cy="2.05969" r="2" fill="white"/>
<circle cx="89.8359" cy="18.0597" r="2" fill="white"/>
<circle cx="89.8359" cy="34.0597" r="2" fill="white"/>
<circle cx="89.8359" cy="50.0597" r="2" fill="white"/>
<circle cx="89.8359" cy="66.0597" r="2" fill="white"/>
<circle cx="89.8359" cy="82.0597" r="2" fill="white"/>
<circle cx="89.8359" cy="98.0597" r="2" fill="white"/>
<circle cx="89.8359" cy="114.06" r="2" fill="white"/>
<circle cx="89.8359" cy="130.06" r="2" fill="white"/>
<circle cx="89.8359" cy="146.06" r="2" fill="white"/>
</svg>
