<svg width="1224" height="429" viewBox="0 0 1224 429" fill="none" xmlns="http://www.w3.org/2000/svg">
<g opacity="0.2">
<path d="M457.053 128.372H471.856V122.652H477.203V100.832H471.856V94.5826H477.203V83.6726H471.856H469.436V1H459.473V83.6726H457.053H452.578V94.5826H457.053V100.832H452.578V122.652H457.053V128.372Z" fill="#293D3D" stroke="white" stroke-width="2" stroke-miterlimit="10" stroke-linecap="round" stroke-linejoin="round"/>
<path d="M760.4 149.715H730.541V166.028H760.4V149.715Z" fill="#293D3D" stroke="white" stroke-width="2" stroke-miterlimit="10" stroke-linecap="round" stroke-linejoin="round"/>
<path d="M928.721 190.018H900.016V206.33H928.721V190.018Z" fill="#293D3D" stroke="white" stroke-width="2" stroke-miterlimit="10" stroke-linecap="round" stroke-linejoin="round"/>
<path d="M1400 427.073V410.761H1391.53L1383.45 374.536L1375.38 410.761H1362.91V280.53L1347.4 272.162L1312.84 277.882V390.001H1295.48V347.155L1258.1 363.043V391.325C1249.92 388.888 1231.37 383.804 1207.79 379.62C1198.64 319.827 1184.17 221.054 1183.3 189.595C1182.04 143.413 1190 54.0143 1190 54.0143L1180.77 72.6037C1180.77 72.6037 1179.87 87.9095 1179.19 109.783H1167.74C1167.06 87.8565 1166.16 72.6037 1166.16 72.6037L1156.93 54.0143C1156.93 54.0143 1164.9 143.413 1163.63 189.595C1162.79 219.995 1149.28 313.101 1140.1 373.318C1125.16 373.371 1110.13 374.642 1095.78 377.502V366.962L1065.07 361.243V240.597L1027.81 235.089L1009.86 240.597V374.059H993.479V350.439H970.036V213.64H858.648V331.69H830.871V166.981H823.694V198.863H800.364V166.981H793.188V401.122L781.706 402.499L773.404 361.084V173.336H717.54V427.179H703.525V377.925H698.854V324.382H690.917V313.101H663.169V266.177H649.66V160.149H624.613V249.23H593.797V374.218H586.621L568.103 397.839V144.684L553.384 141.665L524.454 144.684V334.021H514.041V391.272H492.23V324.964H479.144V135.628H434.904V410.126H423.9V310.453H415.795V299.596H385.767V310.453H375.748V392.013H352.755L353.431 427.021H347.408L338.149 392.543H313.327L320.11 425.379L318.337 426.968H316.226L309.134 392.49H282.511L289.293 425.326L287.52 426.915H285.41L278.318 392.437H243.787L249.275 425.591L247.445 426.915H245.391L239.678 392.437H204.922L208.383 426.067L206.498 426.915H204.528L200.982 392.437H165.888V426.915H162.032V392.437H121.338L117.792 426.915H115.822L113.937 426.067L117.398 392.437H82.6419L77.2385 426.915H75.2122L73.3829 425.644L78.5893 392.437H51.8257L46.4223 426.915H44.396L42.5667 425.644L47.7731 392.437H23.8237L17.6605 426.915H1" fill="#293D3D"/>
<path d="M1400 427.073V410.761H1391.53L1383.45 374.536L1375.38 410.761H1362.91V280.53L1347.4 272.162L1312.84 277.882V390.001H1295.48V347.155L1258.1 363.043V391.325C1249.92 388.888 1231.37 383.804 1207.79 379.62C1198.64 319.827 1184.17 221.054 1183.3 189.595C1182.04 143.413 1190 54.0143 1190 54.0143L1180.77 72.6037C1180.77 72.6037 1179.87 87.9095 1179.19 109.783H1167.74C1167.06 87.8565 1166.16 72.6037 1166.16 72.6037L1156.93 54.0143C1156.93 54.0143 1164.9 143.413 1163.63 189.595C1162.79 219.995 1149.28 313.101 1140.1 373.318C1125.16 373.371 1110.13 374.642 1095.78 377.502V366.962L1065.07 361.243V240.597L1027.81 235.089L1009.86 240.597V374.059H993.479V350.439H970.036V213.64H858.648V331.69H830.871V166.981H823.694V198.863H800.364V166.981H793.188V401.123L781.706 402.499L773.404 361.084V173.336H717.54V427.179H703.525V377.925H698.854V324.382H690.917V313.101H663.169V266.177H649.66V160.149H624.613V249.23H593.797V374.218H586.621L568.103 397.839V144.684L553.384 141.665L524.454 144.684V334.021H514.041V391.272H492.23V324.964H479.144V135.628H434.904V410.126H423.9V310.453H415.795V299.596H385.767V310.453H375.748V392.013H352.755L353.431 427.021H347.408L338.149 392.543H313.327L320.11 425.379L318.337 426.968H316.226L309.134 392.49H282.511L289.293 425.326L287.52 426.915H285.41L278.318 392.437H243.787L249.275 425.591L247.445 426.915H245.391L239.678 392.437H204.922L208.383 426.067L206.498 426.915H204.528L200.982 392.437H165.888V426.915H162.032V392.437H121.338L117.792 426.915H115.822L113.937 426.067L117.398 392.437H82.6419L77.2385 426.915H75.2122L73.3829 425.644L78.5893 392.437H51.8257L46.4223 426.915H44.396L42.5667 425.644L47.7731 392.437H23.8237L17.6605 426.915H1" stroke="white" stroke-width="2" stroke-miterlimit="10" stroke-linecap="round" stroke-linejoin="round"/>
<path d="M1095.78 427.074V406.63C1108.58 403.929 1122.09 402.658 1135.63 402.394C1133.26 417.593 1131.74 427.021 1131.74 427.021" fill="#293D3D"/>
<path d="M1095.78 427.074V406.63C1108.58 403.929 1122.09 402.658 1135.63 402.394C1133.26 417.593 1131.74 427.021 1131.74 427.021" stroke="white" stroke-width="2" stroke-miterlimit="10" stroke-linecap="round" stroke-linejoin="round"/>
<path d="M1178.88 121.91C1178.77 127.259 1178.68 132.979 1178.6 138.752H1168.33C1168.27 132.979 1168.19 127.259 1168.05 121.91H1178.88Z" fill="#293D3D" stroke="white" stroke-width="2" stroke-miterlimit="10" stroke-linecap="round" stroke-linejoin="round"/>
<path d="M1178.63 167.722H1168.33C1168.41 162.055 1168.44 156.441 1168.41 150.88H1178.55C1178.55 156.441 1178.55 162.055 1178.63 167.722Z" fill="#293D3D" stroke="white" stroke-width="2" stroke-miterlimit="10" stroke-linecap="round" stroke-linejoin="round"/>
<path d="M1168.08 179.904H1178.88C1179.05 185.624 1179.28 191.238 1179.56 196.746H1167.37C1167.68 191.185 1167.91 185.571 1168.08 179.904Z" fill="#293D3D" stroke="white" stroke-width="2" stroke-miterlimit="10" stroke-linecap="round" stroke-linejoin="round"/>
<path d="M1166.16 214.753C1166.33 212.846 1166.47 210.833 1166.61 208.927H1180.35C1180.49 210.886 1180.63 212.899 1180.8 214.753C1184.03 251.402 1192.08 327.454 1197.49 377.873C1182.77 375.596 1166.56 373.848 1149.98 373.371C1155.36 323.005 1163.01 250.343 1166.16 214.753Z" fill="#293D3D" stroke="white" stroke-width="2" stroke-miterlimit="10" stroke-linecap="round" stroke-linejoin="round"/>
<path d="M1144.18 427.074C1144.18 427.074 1145.22 417.594 1146.86 402.447C1165.68 402.817 1184.23 404.936 1200.69 407.637C1201.99 419.712 1202.8 427.074 1202.8 427.074" fill="#293D3D"/>
<path d="M1144.18 427.074C1144.18 427.074 1145.22 417.594 1146.86 402.447C1165.68 402.817 1184.23 404.936 1200.69 407.637C1201.99 419.712 1202.8 427.074 1202.8 427.074" stroke="white" stroke-width="2" stroke-miterlimit="10" stroke-linecap="round" stroke-linejoin="round"/>
<path d="M1215.22 427.074C1215.22 427.074 1214.17 420.56 1212.49 409.703C1235.48 414.046 1252.73 418.971 1258.13 420.613V427.074" fill="#293D3D"/>
<path d="M1215.22 427.074C1215.22 427.074 1214.17 420.56 1212.49 409.703C1235.48 414.046 1252.73 418.971 1258.13 420.613V427.074" stroke="white" stroke-width="2" stroke-miterlimit="10" stroke-linecap="round" stroke-linejoin="round"/>
<path d="M247.557 339.635L256.028 250.342C271.14 245.47 283.945 242.822 294.808 241.816L283.27 339.635H247.557Z" fill="#293D3D" stroke="white" stroke-width="2" stroke-miterlimit="10" stroke-linecap="round" stroke-linejoin="round"/>
<path d="M287.211 339.634L298.778 241.55C309.584 240.915 318.309 241.921 325.344 243.986L314.059 339.687H287.211V339.634Z" fill="#293D3D" stroke="white" stroke-width="2" stroke-miterlimit="10" stroke-linecap="round" stroke-linejoin="round"/>
<path d="M206.808 347.737H242.858L239.369 384.545H204.641L206.808 347.737Z" fill="#293D3D" stroke="white" stroke-width="2" stroke-miterlimit="10" stroke-linecap="round" stroke-linejoin="round"/>
<path d="M203.403 339.634H165.889V285.137C179.594 279.629 193.609 273.962 207.596 268.401L203.403 339.634Z" fill="#293D3D" stroke="white" stroke-width="2" stroke-miterlimit="10" stroke-linecap="round" stroke-linejoin="round"/>
<path d="M308.768 384.545H281.92L286.254 347.737H313.102L308.768 384.545Z" fill="#293D3D" stroke="white" stroke-width="2" stroke-miterlimit="10" stroke-linecap="round" stroke-linejoin="round"/>
<path d="M318.027 339.634L329.172 245.257C352.305 253.996 354.331 274.333 354.331 274.333L344.481 339.687H318.027V339.634Z" fill="#293D3D" stroke="white" stroke-width="2" stroke-miterlimit="10" stroke-linecap="round" stroke-linejoin="round"/>
<path d="M200.757 384.545H165.889V347.737H202.924L200.757 384.545Z" fill="#293D3D" stroke="white" stroke-width="2" stroke-miterlimit="10" stroke-linecap="round" stroke-linejoin="round"/>
<path d="M246.798 347.737H282.286L277.952 384.545H243.309L246.798 347.737Z" fill="#293D3D" stroke="white" stroke-width="2" stroke-miterlimit="10" stroke-linecap="round" stroke-linejoin="round"/>
<path d="M337.699 384.545H312.736L317.07 347.737H343.271L337.699 384.545Z" fill="#293D3D" stroke="white" stroke-width="2" stroke-miterlimit="10" stroke-linecap="round" stroke-linejoin="round"/>
<path d="M207.285 339.634L211.591 266.866C223.045 262.364 234.499 257.968 245.756 253.89C247.895 253.096 249.921 252.46 251.976 251.772L243.646 339.687H207.285V339.634Z" fill="#293D3D" stroke="white" stroke-width="2" stroke-miterlimit="10" stroke-linecap="round" stroke-linejoin="round"/>
<path d="M162.032 339.635H118.917L116.807 303.992C131.159 298.908 146.356 292.976 162.032 286.674V339.635Z" fill="#293D3D" stroke="white" stroke-width="2" stroke-miterlimit="10" stroke-linecap="round" stroke-linejoin="round"/>
<path d="M82.9509 384.545L79.6582 347.737H115.512L117.679 384.545H82.9509Z" fill="#293D3D" stroke="white" stroke-width="2" stroke-miterlimit="10" stroke-linecap="round" stroke-linejoin="round"/>
<path d="M115.034 339.634H78.9271L76.8164 316.279C87.8765 313.63 100.034 309.87 113.008 305.369L115.034 339.634Z" fill="#293D3D" stroke="white" stroke-width="2" stroke-miterlimit="10" stroke-linecap="round" stroke-linejoin="round"/>
<path d="M20.8411 339.634L17.6328 297.159C19.2369 311.883 28.2426 318.715 42.3984 320.039L44.1713 339.634H20.8411Z" fill="#293D3D" stroke="white" stroke-width="2" stroke-miterlimit="10" stroke-linecap="round" stroke-linejoin="round"/>
<path d="M22.36 299.808C21.6002 297.477 10.7652 255.426 74.7898 267.713C138.617 280 155.475 282.913 155.587 282.913C91 308.493 30.9154 325.917 22.36 299.808Z" fill="#293D3D" stroke="white" stroke-width="2" stroke-miterlimit="10" stroke-linecap="round" stroke-linejoin="round"/>
<path d="M52.1345 384.545L48.8418 347.737H75.718L79.0389 384.545H52.1345Z" fill="#293D3D" stroke="white" stroke-width="2" stroke-miterlimit="10" stroke-linecap="round" stroke-linejoin="round"/>
<path d="M74.9863 339.635H48.1101L46.3652 320.304C54.0482 320.515 62.9975 319.35 72.96 317.179L74.9863 339.635Z" fill="#293D3D" stroke="white" stroke-width="2" stroke-miterlimit="10" stroke-linecap="round" stroke-linejoin="round"/>
<path d="M121.563 384.545L119.396 347.737H162.033V384.545H121.563Z" fill="#293D3D" stroke="white" stroke-width="2" stroke-miterlimit="10" stroke-linecap="round" stroke-linejoin="round"/>
<path d="M44.9018 347.737L48.2227 384.545H24.2451L21.459 347.737H44.9018Z" fill="#293D3D" stroke="white" stroke-width="2" stroke-miterlimit="10" stroke-linecap="round" stroke-linejoin="round"/>
</g>
</svg>
