<svg width="1440" height="320" viewBox="0 0 1440 320" fill="none" xmlns="http://www.w3.org/2000/svg">
<path d="M572.152 118.726H588.723V114.9H594.709V100.307H588.723V96.1271H594.709V88.8303H588.723H586.014V33.5378H574.861V88.8303H572.152H567.143V96.1271H572.152V100.307H567.143V114.9H572.152V118.726Z" fill="#293D3D" stroke="white" stroke-width="2" stroke-miterlimit="10" stroke-linecap="round" stroke-linejoin="round"/>
<path d="M911.741 133.001H878.314V143.91H911.741V133.001Z" fill="#293D3D" stroke="white" stroke-width="2" stroke-miterlimit="10" stroke-linecap="round" stroke-linejoin="round"/>
<path d="M1100.17 159.956H1068.04V170.866H1100.17V159.956Z" fill="#293D3D" stroke="white" stroke-width="2" stroke-miterlimit="10" stroke-linecap="round" stroke-linejoin="round"/>
<path d="M1627.75 318.502V307.592H1618.26L1609.22 283.364L1600.18 307.592H1586.22V220.491L1568.87 214.895L1530.18 218.72V293.707H1510.74V265.051L1468.9 275.677V294.592C1459.73 292.963 1438.97 289.563 1412.57 286.764C1402.33 246.774 1386.14 180.713 1385.16 159.673C1383.74 128.786 1392.66 68.9945 1392.66 68.9945L1382.33 81.4273C1382.33 81.4273 1381.32 91.6641 1380.56 106.293H1367.74C1366.98 91.6287 1365.97 81.4273 1365.97 81.4273L1355.64 68.9945C1355.64 68.9945 1364.56 128.786 1363.14 159.673C1362.19 180.005 1347.07 242.275 1336.8 282.549C1320.07 282.585 1303.25 283.435 1287.18 285.347V278.299L1252.81 274.473V193.784L1211.1 190.1L1191 193.784V283.045H1172.66V267.247H1146.42V175.754H1021.72V254.708H990.628V144.548H982.594V165.872H956.477V144.548H948.443V301.145L935.589 302.066L926.295 274.367V148.799H863.758V318.573H848.069V285.631H842.839V249.82H833.955V242.275H802.891V210.892H787.769V139.979H759.73V199.557H725.232V283.151H717.199L696.468 298.949V129.636L679.992 127.617L647.605 129.636V256.267H635.948V294.557H611.532V250.21H596.882V123.579H547.357V307.167H535.038V240.504H525.965V233.243H492.349V240.504H481.134V295.053H455.394L456.151 318.466H449.409L439.044 295.407H411.256L418.849 317.368L416.864 318.431H414.501L406.562 295.372H376.759L384.351 317.333L382.367 318.395H380.004L372.065 295.336H333.408L339.552 317.51L337.504 318.395H335.204L328.809 295.336H289.9L293.775 317.829L291.665 318.395H289.459L285.49 295.336H246.203V318.395H241.887V295.336H196.331L192.362 318.395H190.156L188.046 317.829L191.921 295.336H153.012L146.963 318.395H144.695L142.647 317.545L148.476 295.336H118.515L112.466 318.395H110.197L108.15 317.545L113.978 295.336H87.1675L80.268 318.395H61.6172" fill="#293D3D" fill-opacity="0.75"/>
<path d="M1627.75 318.502V307.592H1618.26L1609.22 283.364L1600.18 307.592H1586.22V220.491L1568.87 214.895L1530.18 218.72V293.707H1510.74V265.051L1468.9 275.677V294.592C1459.73 292.963 1438.97 289.563 1412.57 286.764C1402.33 246.774 1386.14 180.713 1385.16 159.673C1383.74 128.786 1392.66 68.9945 1392.66 68.9945L1382.33 81.4273C1382.33 81.4273 1381.32 91.6641 1380.56 106.293H1367.74C1366.98 91.6287 1365.97 81.4273 1365.97 81.4273L1355.64 68.9945C1355.64 68.9945 1364.56 128.786 1363.14 159.673C1362.19 180.005 1347.07 242.275 1336.8 282.549C1320.07 282.585 1303.25 283.435 1287.18 285.347V278.299L1252.81 274.473V193.784L1211.1 190.1L1191 193.784V283.045H1172.66V267.247H1146.42V175.754H1021.72V254.708H990.628V144.548H982.594V165.872H956.477V144.548H948.443V301.145L935.589 302.066L926.295 274.367V148.799H863.758V318.573H848.069V285.631H842.839V249.82H833.955V242.275H802.891V210.892H787.769V139.979H759.73V199.557H725.232V283.151H717.199L696.468 298.949V129.636L679.991 127.617L647.605 129.636V256.267H635.948V294.557H611.532V250.21H596.882V123.579H547.357V307.167H535.038V240.504H525.965V233.243H492.349V240.504H481.134V295.053H455.394L456.151 318.466H449.409L439.044 295.407H411.256L418.849 317.368L416.864 318.431H414.501L406.562 295.372H376.759L384.351 317.333L382.367 318.395H380.004L372.065 295.336H333.408L339.552 317.51L337.504 318.395H335.204L328.809 295.336H289.9L293.775 317.829L291.665 318.395H289.459L285.49 295.336H246.203V318.395H241.887V295.336H196.331L192.362 318.395H190.156L188.046 317.829L191.921 295.336H153.012L146.963 318.395H144.695L142.647 317.545L148.476 295.336H118.515L112.466 318.395H110.197L108.15 317.545L113.978 295.336H87.1675L80.268 318.395H61.6172" stroke="white" stroke-width="2" stroke-miterlimit="10" stroke-linecap="round" stroke-linejoin="round"/>
<path d="M1380.22 114.404C1380.09 117.982 1379.99 121.807 1379.9 125.668H1368.4C1368.34 121.807 1368.24 117.982 1368.09 114.404H1380.22Z" fill="#293D3D" stroke="white" stroke-width="2" stroke-miterlimit="10" stroke-linecap="round" stroke-linejoin="round"/>
<path d="M1379.93 145.044H1368.4C1368.5 141.254 1368.53 137.499 1368.5 133.78H1379.84C1379.84 137.499 1379.84 141.254 1379.93 145.044Z" fill="#293D3D" stroke="white" stroke-width="2" stroke-miterlimit="10" stroke-linecap="round" stroke-linejoin="round"/>
<path d="M1368.12 153.191H1380.22C1380.4 157.016 1380.66 160.771 1380.97 164.455H1367.33C1367.68 160.735 1367.93 156.981 1368.12 153.191Z" fill="#293D3D" stroke="white" stroke-width="2" stroke-miterlimit="10" stroke-linecap="round" stroke-linejoin="round"/>
<path d="M1365.97 176.498C1366.16 175.223 1366.32 173.877 1366.48 172.602H1381.85C1382.01 173.912 1382.17 175.258 1382.36 176.498C1385.98 201.01 1394.99 251.874 1401.04 285.595C1384.56 284.072 1366.42 282.903 1347.86 282.585C1353.88 248.899 1362.45 200.301 1365.97 176.498Z" fill="#293D3D" stroke="white" stroke-width="2" stroke-miterlimit="10" stroke-linecap="round" stroke-linejoin="round"/>
<path d="M337.631 260.021L347.114 200.301C364.032 197.042 378.366 195.271 390.527 194.598L377.61 260.021H337.631Z" fill="#293D3D" stroke="white" stroke-width="2" stroke-miterlimit="10" stroke-linecap="round" stroke-linejoin="round"/>
<path d="M382.02 260.021L394.968 194.421C407.066 193.996 416.832 194.669 424.708 196.05L412.075 260.057H382.02V260.021Z" fill="#293D3D" stroke="white" stroke-width="2" stroke-miterlimit="10" stroke-linecap="round" stroke-linejoin="round"/>
<path d="M292.012 265.441H332.369L328.463 290.058H289.586L292.012 265.441Z" fill="#293D3D" stroke="white" stroke-width="2" stroke-miterlimit="10" stroke-linecap="round" stroke-linejoin="round"/>
<path d="M288.199 260.021H246.203V223.573C261.546 219.889 277.235 216.099 292.893 212.38L288.199 260.021Z" fill="#293D3D" stroke="white" stroke-width="2" stroke-miterlimit="10" stroke-linecap="round" stroke-linejoin="round"/>
<path d="M406.153 290.058H376.098L380.949 265.441H411.005L406.153 290.058Z" fill="#293D3D" stroke="white" stroke-width="2" stroke-miterlimit="10" stroke-linecap="round" stroke-linejoin="round"/>
<path d="M416.518 260.021L428.993 196.901C454.89 202.745 457.159 216.347 457.159 216.347L446.132 260.057H416.518V260.021Z" fill="#293D3D" stroke="white" stroke-width="2" stroke-miterlimit="10" stroke-linecap="round" stroke-linejoin="round"/>
<path d="M285.237 290.058H246.203V265.441H287.663L285.237 290.058Z" fill="#293D3D" stroke="white" stroke-width="2" stroke-miterlimit="10" stroke-linecap="round" stroke-linejoin="round"/>
<path d="M336.78 265.441H376.507L371.655 290.058H332.873L336.78 265.441Z" fill="#293D3D" stroke="white" stroke-width="2" stroke-miterlimit="10" stroke-linecap="round" stroke-linejoin="round"/>
<path d="M438.54 290.058H410.596L415.447 265.441H444.778L438.54 290.058Z" fill="#293D3D" stroke="white" stroke-width="2" stroke-miterlimit="10" stroke-linecap="round" stroke-linejoin="round"/>
<path d="M292.547 260.021L297.367 211.352C310.19 208.342 323.012 205.402 335.614 202.674C338.008 202.143 340.277 201.718 342.576 201.257L333.251 260.057H292.547V260.021Z" fill="#293D3D" stroke="white" stroke-width="2" stroke-miterlimit="10" stroke-linecap="round" stroke-linejoin="round"/>
<path d="M241.888 260.021H193.623L191.26 236.183C207.327 232.782 224.34 228.815 241.888 224.6V260.021Z" fill="#293D3D" stroke="white" stroke-width="2" stroke-miterlimit="10" stroke-linecap="round" stroke-linejoin="round"/>
<path d="M153.36 290.058L149.674 265.441H189.811L192.237 290.058H153.36Z" fill="#293D3D" stroke="white" stroke-width="2" stroke-miterlimit="10" stroke-linecap="round" stroke-linejoin="round"/>
<path d="M189.274 260.021H148.853L146.49 244.4C158.872 242.629 172.482 240.114 187.005 237.104L189.274 260.021Z" fill="#293D3D" stroke="white" stroke-width="2" stroke-miterlimit="10" stroke-linecap="round" stroke-linejoin="round"/>
<path d="M83.8279 260.021L80.2363 231.613C82.0321 241.461 92.1136 246.03 107.96 246.915L109.945 260.021H83.8279Z" fill="#293D3D" stroke="white" stroke-width="2" stroke-miterlimit="10" stroke-linecap="round" stroke-linejoin="round"/>
<path d="M85.5303 233.384C84.6796 231.826 72.5503 203.701 144.224 211.919C215.676 220.137 234.548 222.085 234.674 222.085C162.37 239.194 95.1077 250.847 85.5303 233.384Z" fill="#293D3D" stroke="white" stroke-width="2" stroke-miterlimit="10" stroke-linecap="round" stroke-linejoin="round"/>
<path d="M118.862 290.058L115.176 265.441H145.263L148.98 290.058H118.862Z" fill="#293D3D" stroke="white" stroke-width="2" stroke-miterlimit="10" stroke-linecap="round" stroke-linejoin="round"/>
<path d="M144.445 260.021H114.358L112.404 247.092C121.005 247.234 131.024 246.455 142.176 245.003L144.445 260.021Z" fill="#293D3D" stroke="white" stroke-width="2" stroke-miterlimit="10" stroke-linecap="round" stroke-linejoin="round"/>
<path d="M196.584 290.058L194.158 265.441H241.888V290.058H196.584Z" fill="#293D3D" stroke="white" stroke-width="2" stroke-miterlimit="10" stroke-linecap="round" stroke-linejoin="round"/>
<path d="M110.765 265.441L114.482 290.058H87.6404L84.5215 265.441H110.765Z" fill="#293D3D" stroke="white" stroke-width="2" stroke-miterlimit="10" stroke-linecap="round" stroke-linejoin="round"/>
<path d="M561.212 118.726H577.784V114.9H583.77V100.307H577.784V96.1271H583.77V88.8303H577.784H575.074V33.5378H563.922V88.8303H561.212H556.203V96.1271H561.212V100.307H556.203V114.9H561.212V118.726Z" stroke="white" stroke-width="2" stroke-miterlimit="10" stroke-linecap="round" stroke-linejoin="round"/>
<path d="M900.801 133.001H867.375V143.91H900.801V133.001Z" stroke="white" stroke-width="2" stroke-miterlimit="10" stroke-linecap="round" stroke-linejoin="round"/>
<path d="M1089.23 159.956H1057.1V170.866H1089.23V159.956Z" stroke="white" stroke-width="2" stroke-miterlimit="10" stroke-linecap="round" stroke-linejoin="round"/>
<path d="M1616.81 318.502V307.592H1607.33L1598.28 283.364L1589.24 307.592H1575.28V220.491L1557.93 214.895L1519.24 218.72V293.707H1499.8V265.051L1457.96 275.677V294.592C1448.79 292.963 1428.03 289.563 1401.63 286.764C1391.39 246.774 1375.2 180.713 1374.22 159.673C1372.8 128.786 1381.72 68.9945 1381.72 68.9945L1371.39 81.4273C1371.39 81.4273 1370.38 91.6641 1369.62 106.293H1356.8C1356.04 91.6287 1355.04 81.4273 1355.04 81.4273L1344.7 68.9945C1344.7 68.9945 1353.62 128.786 1352.2 159.673C1351.25 180.005 1336.13 242.275 1325.86 282.549C1309.13 282.585 1292.31 283.435 1276.24 285.347V278.299L1241.87 274.473V193.784L1200.16 190.1L1180.06 193.784V283.045H1161.72V267.247H1135.48V175.754H1010.78V254.708H979.688V144.548H971.655V165.872H945.537V144.548H937.504V301.145L924.65 302.066L915.356 274.367V148.799H852.819V318.573H837.13V285.631H831.9V249.82H823.015V242.275H791.952V210.892H776.83V139.979H748.79V199.557H714.293V283.151H706.259L685.529 298.949V129.636L669.052 127.617L636.665 129.636V256.267H625.008V294.557H600.592V250.21H585.943V123.579H536.417V307.167H524.099V240.504H515.026V233.243H481.41V240.504H470.194V295.053H444.455L445.211 318.466H438.469L428.104 295.407H400.317L407.91 317.368L405.925 318.431H403.562L395.623 295.372H365.819L373.412 317.333L371.427 318.395H369.064L361.125 295.336H322.469L328.612 317.51L326.564 318.395H324.265L317.869 295.336H278.961L282.836 317.829L280.725 318.395H278.52L274.55 295.336H235.264V318.395H230.948V295.336H185.392L181.422 318.395H179.217L177.106 317.829L180.981 295.336H142.073L136.024 318.395H133.756L131.708 317.545L137.536 295.336H107.575L101.526 318.395H99.258L97.2102 317.545L103.039 295.336H76.228L69.3285 318.395H50.6777" stroke="white" stroke-width="2" stroke-miterlimit="10" stroke-linecap="round" stroke-linejoin="round"/>
<path d="M1369.28 114.404C1369.15 117.982 1369.06 121.807 1368.96 125.668H1357.46C1357.4 121.807 1357.3 117.982 1357.15 114.404H1369.28Z" stroke="white" stroke-width="2" stroke-miterlimit="10" stroke-linecap="round" stroke-linejoin="round"/>
<path d="M1368.99 145.044H1357.46C1357.56 141.254 1357.59 137.499 1357.56 133.78H1368.9C1368.9 137.499 1368.9 141.254 1368.99 145.044Z" stroke="white" stroke-width="2" stroke-miterlimit="10" stroke-linecap="round" stroke-linejoin="round"/>
<path d="M1357.18 153.191H1369.28C1369.46 157.016 1369.72 160.771 1370.03 164.455H1356.39C1356.74 160.735 1356.99 156.981 1357.18 153.191Z" stroke="white" stroke-width="2" stroke-miterlimit="10" stroke-linecap="round" stroke-linejoin="round"/>
<path d="M1355.04 176.498C1355.23 175.223 1355.38 173.877 1355.54 172.602H1370.92C1371.07 173.912 1371.23 175.258 1371.42 176.498C1375.04 201.01 1384.05 251.874 1390.1 285.595C1373.62 284.072 1355.48 282.903 1336.92 282.585C1342.94 248.899 1351.51 200.301 1355.04 176.498Z" stroke="white" stroke-width="2" stroke-miterlimit="10" stroke-linecap="round" stroke-linejoin="round"/>
<path d="M326.691 260.021L336.174 200.301C353.092 197.042 367.427 195.271 379.588 194.598L366.671 260.021H326.691Z" stroke="white" stroke-width="2" stroke-miterlimit="10" stroke-linecap="round" stroke-linejoin="round"/>
<path d="M371.082 260.021L384.03 194.421C396.128 193.996 405.895 194.669 413.771 196.05L401.138 260.057H371.082V260.021Z" stroke="white" stroke-width="2" stroke-miterlimit="10" stroke-linecap="round" stroke-linejoin="round"/>
<path d="M281.072 265.441H321.43L317.523 290.058H278.646L281.072 265.441Z" stroke="white" stroke-width="2" stroke-miterlimit="10" stroke-linecap="round" stroke-linejoin="round"/>
<path d="M277.261 260.021H235.266V223.573C250.608 219.889 266.298 216.099 281.956 212.38L277.261 260.021Z" stroke="white" stroke-width="2" stroke-miterlimit="10" stroke-linecap="round" stroke-linejoin="round"/>
<path d="M395.214 290.058H365.158L370.01 265.441H400.065L395.214 290.058Z" stroke="white" stroke-width="2" stroke-miterlimit="10" stroke-linecap="round" stroke-linejoin="round"/>
<path d="M405.58 260.021L418.056 196.901C443.953 202.745 446.221 216.347 446.221 216.347L435.194 260.057H405.58V260.021Z" stroke="white" stroke-width="2" stroke-miterlimit="10" stroke-linecap="round" stroke-linejoin="round"/>
<path d="M274.3 290.058H235.266V265.441H276.726L274.3 290.058Z" stroke="white" stroke-width="2" stroke-miterlimit="10" stroke-linecap="round" stroke-linejoin="round"/>
<path d="M325.84 265.441H365.568L360.716 290.058H321.934L325.84 265.441Z" stroke="white" stroke-width="2" stroke-miterlimit="10" stroke-linecap="round" stroke-linejoin="round"/>
<path d="M427.601 290.058H399.656L404.508 265.441H433.839L427.601 290.058Z" stroke="white" stroke-width="2" stroke-miterlimit="10" stroke-linecap="round" stroke-linejoin="round"/>
<path d="M281.607 260.021L286.428 211.352C299.25 208.342 312.072 205.402 324.674 202.674C327.069 202.143 329.337 201.718 331.637 201.257L322.312 260.057H281.607V260.021Z" stroke="white" stroke-width="2" stroke-miterlimit="10" stroke-linecap="round" stroke-linejoin="round"/>
<path d="M230.948 260.021H182.683L180.32 236.183C196.388 232.782 213.4 228.815 230.948 224.6V260.021Z" stroke="white" stroke-width="2" stroke-miterlimit="10" stroke-linecap="round" stroke-linejoin="round"/>
<path d="M142.42 290.058L138.734 265.441H178.871L181.297 290.058H142.42Z" stroke="white" stroke-width="2" stroke-miterlimit="10" stroke-linecap="round" stroke-linejoin="round"/>
<path d="M178.336 260.021H137.916L135.553 244.4C147.934 242.629 161.544 240.114 176.068 237.104L178.336 260.021Z" stroke="white" stroke-width="2" stroke-miterlimit="10" stroke-linecap="round" stroke-linejoin="round"/>
<path d="M72.8904 260.021L69.2988 231.613C71.0946 241.461 81.1761 246.03 97.023 246.915L99.0078 260.021H72.8904Z" stroke="white" stroke-width="2" stroke-miterlimit="10" stroke-linecap="round" stroke-linejoin="round"/>
<path d="M74.5908 233.384C73.7402 231.826 61.6109 203.701 133.284 211.919C204.737 220.137 223.608 222.085 223.734 222.085C151.431 239.194 84.1682 250.847 74.5908 233.384Z" stroke="white" stroke-width="2" stroke-miterlimit="10" stroke-linecap="round" stroke-linejoin="round"/>
<path d="M107.922 290.058L104.236 265.441H134.323L138.041 290.058H107.922Z" stroke="white" stroke-width="2" stroke-miterlimit="10" stroke-linecap="round" stroke-linejoin="round"/>
<path d="M133.505 260.021H103.418L101.465 247.092C110.066 247.234 120.084 246.455 131.237 245.003L133.505 260.021Z" stroke="white" stroke-width="2" stroke-miterlimit="10" stroke-linecap="round" stroke-linejoin="round"/>
<path d="M185.645 290.058L183.219 265.441H230.948V290.058H185.645Z" stroke="white" stroke-width="2" stroke-miterlimit="10" stroke-linecap="round" stroke-linejoin="round"/>
<path d="M99.8254 265.441L103.543 290.058H76.701L73.582 265.441H99.8254Z" stroke="white" stroke-width="2" stroke-miterlimit="10" stroke-linecap="round" stroke-linejoin="round"/>
<ellipse cx="1.93587" cy="2.46409" rx="2.18783" ry="2.46409" fill="white"/>
<ellipse cx="1.93587" cy="22.1768" rx="2.18783" ry="2.46409" fill="white"/>
<ellipse cx="1.93587" cy="41.8894" rx="2.18783" ry="2.46409" fill="white"/>
<ellipse cx="1.93587" cy="61.6021" rx="2.18783" ry="2.46409" fill="white"/>
<ellipse cx="19.4378" cy="2.46409" rx="2.18783" ry="2.46409" fill="white"/>
<ellipse cx="19.4378" cy="22.1768" rx="2.18783" ry="2.46409" fill="white"/>
<ellipse cx="19.4378" cy="41.8894" rx="2.18783" ry="2.46409" fill="white"/>
<ellipse cx="19.4378" cy="61.6021" rx="2.18783" ry="2.46409" fill="white"/>
<ellipse cx="36.9417" cy="2.46409" rx="2.18783" ry="2.46409" fill="white"/>
<ellipse cx="36.9417" cy="22.1768" rx="2.18783" ry="2.46409" fill="white"/>
<ellipse cx="36.9417" cy="41.8894" rx="2.18783" ry="2.46409" fill="white"/>
<ellipse cx="36.9417" cy="61.6021" rx="2.18783" ry="2.46409" fill="white"/>
<ellipse cx="54.4437" cy="2.46409" rx="2.18783" ry="2.46409" fill="white"/>
<ellipse cx="54.4437" cy="22.1768" rx="2.18783" ry="2.46409" fill="white"/>
<ellipse cx="54.4437" cy="41.8894" rx="2.18783" ry="2.46409" fill="white"/>
<ellipse cx="54.4437" cy="61.6021" rx="2.18783" ry="2.46409" fill="white"/>
<ellipse cx="71.9456" cy="2.46409" rx="2.18783" ry="2.46409" fill="white"/>
<ellipse cx="71.9456" cy="22.1768" rx="2.18783" ry="2.46409" fill="white"/>
<ellipse cx="71.9456" cy="41.8894" rx="2.18783" ry="2.46409" fill="white"/>
<ellipse cx="71.9456" cy="61.6021" rx="2.18783" ry="2.46409" fill="white"/>
<ellipse cx="89.4495" cy="2.46409" rx="2.18783" ry="2.46409" fill="white"/>
<ellipse cx="89.4495" cy="22.1768" rx="2.18783" ry="2.46409" fill="white"/>
<ellipse cx="89.4495" cy="41.8894" rx="2.18783" ry="2.46409" fill="white"/>
<ellipse cx="89.4495" cy="61.6021" rx="2.18783" ry="2.46409" fill="white"/>
<ellipse cx="106.951" cy="2.46409" rx="2.18783" ry="2.46409" fill="white"/>
<ellipse cx="106.951" cy="22.1768" rx="2.18783" ry="2.46409" fill="white"/>
<ellipse cx="106.951" cy="41.8894" rx="2.18783" ry="2.46409" fill="white"/>
<ellipse cx="106.951" cy="61.6021" rx="2.18783" ry="2.46409" fill="white"/>
<ellipse cx="124.453" cy="2.46409" rx="2.18783" ry="2.46409" fill="white"/>
<ellipse cx="124.453" cy="22.1768" rx="2.18783" ry="2.46409" fill="white"/>
<ellipse cx="124.453" cy="41.8894" rx="2.18783" ry="2.46409" fill="white"/>
<ellipse cx="124.453" cy="61.6021" rx="2.18783" ry="2.46409" fill="white"/>
<ellipse cx="141.957" cy="2.46409" rx="2.18783" ry="2.46409" fill="white"/>
<ellipse cx="141.957" cy="22.1768" rx="2.18783" ry="2.46409" fill="white"/>
<ellipse cx="141.957" cy="41.8894" rx="2.18783" ry="2.46409" fill="white"/>
<ellipse cx="141.957" cy="61.6021" rx="2.18783" ry="2.46409" fill="white"/>
</svg>
