<svg width="33" height="35" viewBox="0 0 33 35" fill="none" xmlns="http://www.w3.org/2000/svg">
<rect x="2.74805" y="4.3042" width="30" height="30" rx="12" fill="#D8DEED"/>
<rect x="0.748047" y="0.304199" width="30" height="30" rx="12" fill="#157FCC"/>
<path opacity="0.4" d="M5.74795 11.2201V19.3881C5.74795 22.9271 8.02395 25.3041 11.4129 25.3041H20.0829C23.4719 25.3041 25.7479 22.9271 25.7479 19.3881V11.2201C25.7479 7.6821 23.4709 5.3041 20.0819 5.3041H11.4129C8.02395 5.3041 5.74795 7.6821 5.74795 11.2201" fill="white"/>
<path d="M11.4686 16.1596L15.2166 19.9246C15.4986 20.2076 15.9976 20.2076 16.2806 19.9246L20.0286 16.1596C20.3206 15.8656 20.3196 15.3906 20.0256 15.0986C19.7316 14.8066 19.2576 14.8066 18.9646 15.1006L16.4976 17.5776V11.2226C16.4976 10.8076 16.1616 10.4726 15.7476 10.4726C15.3336 10.4726 14.9976 10.8076 14.9976 11.2226V17.5776L12.5316 15.1006C12.3846 14.9536 12.1926 14.8806 11.9996 14.8806C11.8086 14.8806 11.6166 14.9536 11.4706 15.0986C11.1776 15.3906 11.1766 15.8656 11.4686 16.1596" fill="white"/>
</svg>
