<svg width="76" height="79" viewBox="0 0 76 79" fill="none" xmlns="http://www.w3.org/2000/svg">
<circle cx="36" cy="36.0393" r="36" fill="#105AD1"/>
<circle cx="40" cy="42.3759" r="35.5" stroke="#105AD1"/>
<path d="M44.6891 29.5995H33.4571V36.8955C33.9478 36.2129 34.6731 35.6582 35.6331 35.2315C36.5931 34.7835 37.6278 34.5595 38.7371 34.5595C40.5078 34.5595 41.9478 34.9329 43.0571 35.6795C44.1665 36.4049 44.9558 37.3542 45.4251 38.5275C45.9158 39.6795 46.1611 40.9062 46.1611 42.2075C46.1611 43.7435 45.8731 45.1195 45.2971 46.3355C44.7211 47.5515 43.8358 48.5115 42.6411 49.2155C41.4678 49.9195 40.0065 50.2715 38.2571 50.2715C36.0171 50.2715 34.2038 49.6955 32.8171 48.5435C31.4305 47.3915 30.5878 45.8555 30.2891 43.9355H33.1371C33.4145 45.1515 34.0011 46.1009 34.8971 46.7835C35.7931 47.4662 36.9238 47.8075 38.2891 47.8075C39.9745 47.8075 41.2438 47.3062 42.0971 46.3035C42.9505 45.2795 43.3771 43.9355 43.3771 42.2715C43.3771 40.6075 42.9505 39.3275 42.0971 38.4315C41.2438 37.5142 39.9851 37.0555 38.3211 37.0555C37.1905 37.0555 36.1985 37.3329 35.3451 37.8875C34.5131 38.4209 33.9051 39.1569 33.5211 40.0955H30.7691V27.0395H44.6891V29.5995Z" fill="white"/>
</svg>
