<svg width="76" height="79" viewBox="0 0 76 79" fill="none" xmlns="http://www.w3.org/2000/svg">
<circle cx="36" cy="36.3376" r="36" fill="#105AD1"/>
<circle cx="40" cy="42.6742" r="35.5" stroke="#105AD1"/>
<path d="M32.4981 36.3622C32.6475 34.3995 33.4048 32.8635 34.7701 31.7542C36.1355 30.6449 37.9061 30.0902 40.0821 30.0902C41.5328 30.0902 42.7808 30.3569 43.8261 30.8902C44.8928 31.4022 45.6928 32.1062 46.2261 33.0022C46.7808 33.8982 47.0581 34.9115 47.0581 36.0422C47.0581 37.3649 46.6741 38.5062 45.9061 39.4662C45.1595 40.4262 44.1781 41.0449 42.9621 41.3222V41.4822C44.3488 41.8235 45.4475 42.4955 46.2581 43.4982C47.0688 44.5009 47.4741 45.8129 47.4741 47.4342C47.4741 48.6502 47.1968 49.7489 46.6421 50.7302C46.0875 51.6902 45.2555 52.4475 44.1461 53.0022C43.0368 53.5569 41.7035 53.8342 40.1461 53.8342C37.8848 53.8342 36.0288 53.2475 34.5781 52.0742C33.1275 50.8795 32.3168 49.1942 32.1461 47.0182H34.9621C35.1115 48.2982 35.6341 49.3435 36.5301 50.1542C37.4261 50.9649 38.6208 51.3702 40.1141 51.3702C41.6075 51.3702 42.7381 50.9862 43.5061 50.2182C44.2955 49.4289 44.6901 48.4155 44.6901 47.1782C44.6901 45.5782 44.1568 44.4262 43.0901 43.7222C42.0235 43.0182 40.4128 42.6662 38.2581 42.6662H37.5221V40.2342H38.2901C40.2528 40.2129 41.7355 39.8929 42.7381 39.2742C43.7408 38.6342 44.2421 37.6529 44.2421 36.3302C44.2421 35.1995 43.8688 34.2929 43.1221 33.6102C42.3968 32.9275 41.3515 32.5862 39.9861 32.5862C38.6635 32.5862 37.5968 32.9275 36.7861 33.6102C35.9755 34.2929 35.4955 35.2102 35.3461 36.3622H32.4981Z" fill="white"/>
</svg>
