<svg width="77" height="79" viewBox="0 0 77 79" fill="none" xmlns="http://www.w3.org/2000/svg">
<path d="M65.4344 45.6395L65.0776 45.8345C63.6366 44.0631 61.14 43.3766 59.2378 44.3531C59.231 44.3565 59.2243 44.3601 59.2177 44.3636L58.3755 44.823C57.3711 43.9615 56.1288 43.4348 54.8181 43.3149C53.5073 43.1949 52.192 43.4875 51.0515 44.1526L46.5164 46.6511H40.4818C39.1752 46.6493 37.8856 46.35 36.7085 45.7753L35.8784 45.3685C33.5149 44.2036 30.8794 43.724 28.2635 43.9828C25.6475 44.2416 23.1534 45.2287 21.0571 46.8348C21.0374 46.85 21.0181 46.8653 20.9998 46.8825L18.9955 48.6899C18.2381 49.3714 17.3428 49.8769 16.3723 50.1711L15.234 46.386C15.1776 46.1987 15.0633 46.0346 14.9079 45.918C14.7525 45.8015 14.5642 45.7386 14.3709 45.7385H4.67775C4.55003 45.7385 4.42377 45.766 4.30731 45.8191C4.19086 45.8722 4.08685 45.9498 4.00218 46.0466C3.91752 46.1435 3.85411 46.2574 3.81615 46.381C3.7782 46.5045 3.76657 46.6348 3.78202 46.7632L7.01301 73.6001C7.03968 73.8217 7.14551 74.0258 7.31052 74.1738C7.47554 74.3218 7.68833 74.4036 7.90874 74.4036H22.4476C22.5886 74.4035 22.7277 74.3701 22.8536 74.3058C22.9795 74.2415 23.0888 74.1482 23.1727 74.0335C23.2567 73.9187 23.3129 73.7855 23.3368 73.6448C23.3608 73.504 23.3518 73.3595 23.3107 73.2229L21.4007 66.8741L27.3493 63.0655C28.1452 62.6194 29.079 62.497 29.9608 62.7232C29.9795 62.7279 29.9983 62.7322 30.0172 62.7355L42.1175 64.9927C45.4059 65.5887 48.7963 65.1038 51.7932 63.6088C51.8315 63.5897 51.8684 63.5678 51.9036 63.5433L72.8325 48.9865C73.0221 48.8546 73.1548 48.6544 73.2036 48.4267C73.2523 48.1991 73.2134 47.9611 73.0948 47.7615C72.3333 46.4767 71.1118 45.539 69.6848 45.1437C68.2578 44.7485 66.7353 44.9261 65.4344 45.6395ZM60.0629 45.9789C61.163 45.4209 62.5479 45.8784 63.4325 46.7335L55.4961 51.0707L55.0299 51.3195C54.7786 50.5967 54.4113 49.9208 53.9429 49.3191L60.0629 45.9789ZM51.9248 45.7527C51.9318 45.7486 51.9398 45.7446 51.9461 45.7404C52.6569 45.3242 53.465 45.1088 54.286 45.1166C55.1069 45.1244 55.9108 45.3552 56.6138 45.7849L52.5787 47.9856C51.8094 47.4169 50.9316 47.0167 50.0013 46.8106L51.9248 45.7527ZM8.70701 72.5754L5.69694 47.5667H13.7021L21.2291 72.5754H8.70701ZM50.9343 61.998C48.2993 63.2974 45.3252 63.716 42.4404 63.1936L30.3699 60.942C29.0422 60.61 27.6395 60.8025 26.4469 61.4805C26.433 61.4883 26.419 61.4968 26.4053 61.5057L20.8536 65.0609L16.8983 51.9211C18.118 51.5488 19.2428 50.9116 20.1944 50.0538L22.1704 48.2714C24.0012 46.8772 26.1763 46.0219 28.4561 45.7997C30.736 45.5775 33.0322 45.9972 35.0917 47.0123L35.9217 47.4191C37.3439 48.1134 38.902 48.4751 40.4808 48.4772H48.5305C49.7134 48.4789 50.8588 48.8979 51.77 49.6621C52.6812 50.4264 53.3011 51.4882 53.5234 52.6652L47.689 52.3978C45.568 52.3012 43.4427 52.4007 41.3395 52.695C41.1043 52.7304 40.8924 52.8584 40.7498 53.0512C40.6073 53.244 40.5456 53.486 40.5782 53.7246C40.6108 53.9632 40.7351 54.1791 40.924 54.3254C41.1129 54.4717 41.3512 54.5365 41.5871 54.5058C43.5812 54.2266 45.5963 54.1323 47.6074 54.2242L54.4736 54.5388C54.4873 54.5388 54.501 54.5398 54.5145 54.5398C54.7538 54.5398 54.9833 54.4435 55.1525 54.272C55.3218 54.1006 55.4168 53.8681 55.4168 53.6257C55.4168 53.4778 55.4107 53.3312 55.4018 53.1854L56.3434 52.6827L66.2916 47.2477C67.0556 46.8286 67.9349 46.6769 68.7928 46.8162C69.6506 46.9555 70.4391 47.3779 71.0355 48.0179L50.9343 61.998Z" fill="white"/>
<path d="M11.5762 68.7938C11.5762 69.363 11.7428 69.9193 12.0549 70.3926C12.3671 70.8658 12.8108 71.2347 13.3299 71.4525C13.849 71.6703 14.4202 71.7273 14.9713 71.6163C15.5224 71.5052 16.0285 71.2311 16.4259 70.8287C16.8232 70.4262 17.0937 69.9134 17.2033 69.3552C17.313 68.797 17.2567 68.2184 17.0417 67.6925C16.8267 67.1667 16.4625 66.7172 15.9954 66.401C15.5282 66.0848 14.9789 65.916 14.417 65.916C13.6639 65.9169 12.9418 66.2203 12.4092 66.7598C11.8766 67.2993 11.577 68.0308 11.5762 68.7938ZM14.417 67.7441C14.622 67.7441 14.8223 67.8057 14.9927 67.921C15.1631 68.0364 15.2959 68.2003 15.3744 68.3921C15.4528 68.5839 15.4733 68.7949 15.4333 68.9986C15.3933 69.2022 15.2947 69.3892 15.1497 69.536C15.0048 69.6828 14.8202 69.7828 14.6192 69.8233C14.4182 69.8638 14.2099 69.843 14.0205 69.7635C13.8312 69.6841 13.6693 69.5495 13.5555 69.3769C13.4416 69.2043 13.3809 69.0014 13.3809 68.7938C13.3813 68.5156 13.4907 68.2489 13.6849 68.0522C13.8791 67.8555 14.1424 67.7448 14.417 67.7444V67.7441Z" fill="white"/>
<path d="M45.3607 13.9678V10.9556C45.3523 9.12113 44.6269 7.36468 43.3433 6.07052C42.0597 4.77635 40.3224 4.0498 38.5114 4.0498C36.7004 4.0498 34.9631 4.77635 33.6795 6.07052C32.396 7.36468 31.6706 9.12113 31.6621 10.9556V13.9678C31.6706 15.8023 32.396 17.5587 33.6795 18.8529C34.9631 20.1471 36.7004 20.8736 38.5114 20.8736C40.3224 20.8736 42.0597 20.1471 43.3433 18.8529C44.6269 17.5587 45.3523 15.8023 45.3607 13.9678ZM33.4668 13.9678V10.9556C33.4741 9.60518 34.0088 8.31254 34.954 7.36022C35.8993 6.40789 37.1783 5.87332 38.5114 5.87332C39.8446 5.87332 41.1236 6.40789 42.0688 7.36022C43.0141 8.31254 43.5488 9.60518 43.5561 10.9556V13.9678C43.5488 15.3182 43.0141 16.6109 42.0688 17.5632C41.1236 18.5155 39.8446 19.0501 38.5114 19.0501C37.1783 19.0501 35.8993 18.5155 34.954 17.5632C34.0088 16.6109 33.4741 15.3182 33.4668 13.9678Z" fill="white"/>
<path d="M27.4716 39.7322H49.5522C49.7915 39.7322 50.021 39.6359 50.1903 39.4645C50.3595 39.2931 50.4545 39.0606 50.4545 38.8182V36.7201H65.5703C65.8096 36.7201 66.0391 36.6238 66.2084 36.4524C66.3776 36.2809 66.4727 36.0485 66.4727 35.806V29.8731C66.4717 28.1323 65.8165 26.4571 64.6403 25.1878C63.4641 23.9186 61.8551 23.1505 60.14 23.0396C59.6588 23.0038 59.4114 23.3125 59.2107 23.5603C58.8115 24.0544 58.3062 24.4497 57.7334 24.716C57.1605 24.9823 56.5352 25.1126 55.9051 25.097C55.275 25.0814 54.6567 24.9203 54.0974 24.626C53.538 24.3317 53.0524 23.9119 52.6775 23.3987C52.5913 23.2806 52.4784 23.1852 52.3481 23.1207C52.2179 23.0562 52.0742 23.0244 51.9293 23.028C50.7571 23.0547 49.6124 23.393 48.61 24.009C47.9482 23.2294 47.1386 22.5923 46.2293 22.1354C45.32 21.6786 44.3294 21.4112 43.3163 21.3492C42.85 21.33 42.6142 21.6167 42.3858 21.8976C41.9174 22.4775 41.3245 22.9414 40.6523 23.254C39.98 23.5665 39.2462 23.7195 38.5068 23.7012C37.7674 23.6829 37.0418 23.4938 36.3854 23.1484C35.7291 22.803 35.1592 22.3103 34.7193 21.708C34.6333 21.5897 34.5204 21.4943 34.3901 21.4297C34.2598 21.3652 34.1161 21.3336 33.9711 21.3375C31.9923 21.3838 30.1105 22.2154 28.7308 23.6531C28.6168 23.7712 28.5086 23.8935 28.4032 24.0177C27.4715 23.443 26.4155 23.1072 25.3267 23.0393C24.8471 23.0035 24.5979 23.3122 24.3974 23.56C23.9982 24.0541 23.493 24.4494 22.9201 24.7157C22.3473 24.982 21.722 25.1123 21.0919 25.0967C20.4618 25.0811 19.8435 24.92 19.2842 24.6257C18.7248 24.3314 18.2392 23.9116 17.8643 23.3984C17.778 23.2804 17.665 23.1852 17.5348 23.1206C17.4046 23.0561 17.261 23.0243 17.1161 23.0277C15.3536 23.0732 13.6783 23.8143 12.4474 25.0931C11.2166 26.3719 10.5276 28.0871 10.5273 29.8731V35.806C10.5273 36.0485 10.6224 36.2809 10.7916 36.4524C10.9609 36.6238 11.1904 36.7201 11.4297 36.7201H26.5692V38.8182C26.5692 39.0606 26.6643 39.2931 26.8335 39.4645C27.0027 39.6359 27.2322 39.7322 27.4716 39.7322ZM51.544 24.8851C52.1003 25.5247 52.7843 26.0375 53.5508 26.3894C54.3173 26.7414 55.1488 26.9245 55.9903 26.9268C56.8318 26.929 57.6643 26.7503 58.4326 26.4024C59.2008 26.0545 59.8875 25.5454 60.4471 24.9087C61.6205 25.088 62.6916 25.6875 63.466 26.5984C64.2404 27.5092 64.6669 28.6711 64.668 29.8731V34.892H50.4545V29.0281C50.4555 27.8108 50.1696 26.6109 49.6206 25.5282C50.2103 25.1798 50.8655 24.9608 51.544 24.8851ZM33.5822 23.1933C34.2061 23.925 34.9779 24.5124 35.8453 24.9157C36.7127 25.3191 37.6555 25.529 38.6099 25.5313C39.5643 25.5336 40.5081 25.3282 41.3774 24.929C42.2467 24.5299 43.0212 23.9462 43.6485 23.2176C45.034 23.4117 46.3035 24.1068 47.2228 25.1747C48.1421 26.2426 48.6492 27.6112 48.6505 29.0281V37.9041H28.3739V29.0281C28.3829 27.5773 28.9188 26.1805 29.8794 25.1044C30.84 24.0282 32.1581 23.3479 33.5822 23.1933ZM12.332 34.892V29.8731C12.3397 28.6416 12.7909 27.4552 13.601 26.5369C14.4111 25.6185 15.5243 25.0314 16.7316 24.8857C17.2879 25.5252 17.9718 26.0377 18.7382 26.3895C19.5046 26.7413 20.3359 26.9243 21.1773 26.9265C22.0187 26.9287 22.851 26.75 23.6191 26.4021C24.3873 26.0543 25.0738 25.5453 25.6333 24.9087C26.2546 25.0028 26.8524 25.2165 27.3944 25.5382C26.8504 26.6189 26.5675 27.815 26.5692 29.0281V34.892H12.332Z" fill="white"/>
<path d="M62.0142 16.6908V14.0542C62.0142 12.4133 61.3707 10.8396 60.2253 9.67931C59.0799 8.51903 57.5263 7.86719 55.9065 7.86719C54.2866 7.86719 52.7331 8.51903 51.5877 9.67931C50.4423 10.8396 49.7988 12.4133 49.7988 14.0542V16.6908C49.7988 18.3317 50.4423 19.9054 51.5877 21.0656C52.7331 22.2259 54.2866 22.8778 55.9065 22.8778C57.5263 22.8778 59.0799 22.2259 60.2253 21.0656C61.3707 19.9054 62.0142 18.3317 62.0142 16.6908ZM51.6035 16.6908V14.0542C51.6035 12.8981 52.0569 11.7894 52.8638 10.972C53.6708 10.1545 54.7653 9.69531 55.9065 9.69531C57.0477 9.69531 58.1422 10.1545 58.9492 10.972C59.7561 11.7894 60.2095 12.8981 60.2095 14.0542V16.6908C60.2095 17.8468 59.7561 18.9555 58.9492 19.773C58.1422 20.5904 57.0477 21.0496 55.9065 21.0496C54.7653 21.0496 53.6708 20.5904 52.8638 19.773C52.0569 18.9555 51.6035 17.8468 51.6035 16.6908Z" fill="white"/>
<path d="M27.2016 16.6908V14.0542C27.2016 13.2417 27.0437 12.4372 26.7367 11.6865C26.4298 10.9359 25.9799 10.2538 25.4128 9.67931C24.8456 9.1048 24.1723 8.64907 23.4313 8.33814C22.6903 8.02722 21.8961 7.86719 21.094 7.86719C20.2919 7.86719 19.4977 8.02722 18.7567 8.33814C18.0157 8.64907 17.3424 9.1048 16.7752 9.67931C16.2081 10.2538 15.7582 10.9359 15.4512 11.6865C15.1443 12.4372 14.9863 13.2417 14.9863 14.0542V16.6908C14.9863 17.5033 15.1443 18.3078 15.4512 19.0584C15.7582 19.8091 16.2081 20.4911 16.7752 21.0656C17.3424 21.6402 18.0157 22.0959 18.7567 22.4068C19.4977 22.7177 20.2919 22.8778 21.094 22.8778C21.8961 22.8778 22.6903 22.7177 23.4313 22.4068C24.1723 22.0959 24.8456 21.6402 25.4128 21.0656C25.9799 20.4911 26.4298 19.8091 26.7367 19.0584C27.0437 18.3078 27.2016 17.5033 27.2016 16.6908ZM16.791 16.6908V14.0542C16.791 12.8981 17.2444 11.7894 18.0513 10.972C18.8583 10.1545 19.9528 9.69531 21.094 9.69531C22.2352 9.69531 23.3297 10.1545 24.1366 10.972C24.9436 11.7894 25.397 12.8981 25.397 14.0542V16.6908C25.397 17.2632 25.2857 17.83 25.0694 18.3589C24.8532 18.8877 24.5362 19.3682 24.1366 19.773C23.7371 20.1777 23.2627 20.4988 22.7407 20.7178C22.2186 20.9369 21.6591 21.0496 21.094 21.0496C20.5289 21.0496 19.9694 20.9369 19.4473 20.7178C18.9252 20.4988 18.4509 20.1777 18.0513 19.773C17.6518 19.3682 17.3348 18.8877 17.1186 18.3589C16.9023 17.83 16.791 17.2632 16.791 16.6908Z" fill="white"/>
</svg>
