<svg width="71" height="68" viewBox="0 0 71 68" fill="none" xmlns="http://www.w3.org/2000/svg">
<path d="M35.4763 6.91033V4.677C34.536 4.678 33.6345 5.03126 32.9696 5.65929C32.3047 6.28732 31.9307 7.13882 31.9297 8.02699H34.2941C34.2944 7.73093 34.4191 7.4471 34.6407 7.23776C34.8623 7.02841 35.1628 6.91066 35.4763 6.91033Z" fill="white"/>
<path d="M31.9297 33.7103H34.2941C34.2944 33.4143 34.4191 33.1304 34.6407 32.9211C34.8623 32.7118 35.1628 32.594 35.4763 32.5937V30.3604C34.536 30.3613 33.6345 30.7146 32.9696 31.3426C32.3047 31.9707 31.9307 32.8222 31.9297 33.7103Z" fill="white"/>
<path d="M31.9297 59.3934H34.2941C34.2944 59.0974 34.4191 58.8136 34.6407 58.6042C34.8623 58.3949 35.1628 58.2771 35.4763 58.2768V56.0435C34.536 56.0445 33.6345 56.3977 32.9696 57.0257C32.3047 57.6538 31.9307 58.5053 31.9297 59.3934Z" fill="white"/>
<path d="M62.667 28.127C64.0645 28.128 65.4396 27.7946 66.6639 27.158C67.8882 26.5214 68.9218 25.6023 69.6685 24.4864C70.4151 23.3704 70.8504 22.0941 70.9337 20.7764C71.017 19.4586 70.7457 18.1424 70.1449 16.9505C69.5442 15.7586 68.6337 14.7298 67.4983 13.9601C66.363 13.1903 65.0397 12.7048 63.6519 12.5486C62.2642 12.3925 60.8572 12.5708 59.5621 13.0671C58.2671 13.5633 57.1262 14.3613 56.2459 15.3866L43.7359 8.49357C43.7455 8.33905 43.7519 8.18384 43.7519 8.02708C43.7519 5.95398 42.88 3.96579 41.3281 2.49989C39.7762 1.03399 37.6713 0.210449 35.4765 0.210449C33.2818 0.210449 31.1769 1.03399 29.625 2.49989C28.0731 3.96579 27.2012 5.95398 27.2012 8.02708C27.2012 8.18384 27.2075 8.33905 27.2171 8.49357L14.7072 15.3866C13.7822 14.3118 12.5714 13.4885 11.1987 13.0012C9.82603 12.514 8.34088 12.3802 6.89543 12.6135C5.44998 12.8469 4.0962 13.4391 2.97281 14.3294C1.84942 15.2197 0.996809 16.376 0.50234 17.6801C0.00787155 18.9841 -0.110677 20.3888 0.158843 21.7503C0.428362 23.1119 1.07626 24.3812 2.03614 25.4284C2.99603 26.4755 4.2334 27.2628 5.62145 27.7095C7.00951 28.1563 8.49835 28.2464 9.93542 27.9707L14.4941 33.7085L10.68 38.512C9.2863 38.1124 7.80561 38.0674 6.38753 38.3814C4.96946 38.6954 3.66422 39.3573 2.60366 40.3003C1.54309 41.2433 0.76476 42.4339 0.347276 43.752C-0.0702083 45.07 -0.112059 46.4688 0.225952 47.807C0.563962 49.1453 1.26986 50.3755 2.27235 51.3736C3.27484 52.3717 4.53842 53.1021 5.93546 53.4913C7.3325 53.8804 8.81351 53.9145 10.2289 53.5899C11.6443 53.2654 12.944 52.5938 13.9967 51.6429L27.217 58.9273C27.2074 59.0818 27.201 59.2371 27.201 59.3938C27.201 61.4669 28.0729 63.4551 29.6248 64.921C31.1768 66.3869 33.2816 67.2104 35.4764 67.2104C37.6711 67.2104 39.776 66.3869 41.3279 64.921C42.8799 63.4551 43.7517 61.4669 43.7517 59.3938C43.7517 59.2371 43.7454 59.0818 43.7358 58.9273L56.9561 51.6429C58.0086 52.592 59.3076 53.262 60.7219 53.5854C62.1362 53.9087 63.6158 53.874 65.0113 53.4847C66.4068 53.0953 67.6689 52.3652 68.6703 51.3679C69.6716 50.3706 70.3767 49.1414 70.7144 47.8045C71.0521 46.4675 71.0105 45.0701 70.5938 43.7532C70.177 42.4363 69.3999 41.2465 68.3408 40.304C67.2817 39.3614 65.9781 38.6994 64.5616 38.3848C63.1451 38.0701 61.6658 38.114 60.273 38.512L56.459 33.7085L61.0177 27.9707C61.5605 28.0748 62.113 28.1271 62.667 28.127ZM62.667 14.7271C63.836 14.7271 64.9789 15.0545 65.9509 15.668C66.923 16.2815 67.6806 17.1535 68.128 18.1737C68.5754 19.1939 68.6924 20.3166 68.4643 21.3996C68.2363 22.4827 67.6733 23.4775 66.8466 24.2584C66.02 25.0392 64.9667 25.571 63.8201 25.7864C62.6735 26.0018 61.485 25.8913 60.4049 25.4687C59.3248 25.0461 58.4017 24.3305 57.7522 23.4123C57.1027 22.4941 56.756 21.4146 56.756 20.3104C56.7578 18.8301 57.3811 17.4109 58.4892 16.3642C59.5974 15.3175 61.0998 14.7287 62.667 14.7271ZM55.0299 17.3021C54.399 18.7285 54.231 20.2997 54.5472 21.8165L49.3082 24.703L40.8084 13.9982C41.8856 13.1397 42.7139 12.0364 43.2153 10.7922L55.0299 17.3021ZM35.4765 25.8937C34.2457 25.8936 33.0304 26.1533 31.9195 26.6538C30.8085 27.1543 29.83 27.883 29.0555 28.7865L23.7006 25.8359L32.1574 15.1857C33.2035 15.62 34.3338 15.8443 35.4765 15.8443C36.6193 15.8443 37.7495 15.62 38.7957 15.1857L47.2525 25.8359L41.8976 28.7865C41.1231 27.883 40.1445 27.1543 39.0336 26.6538C37.9227 26.1533 36.7074 25.8936 35.4765 25.8937ZM41.3875 33.7103C41.3875 34.8146 41.0408 35.8941 40.3913 36.8122C39.7418 37.7304 38.8186 38.446 37.7386 38.8686C36.6585 39.2912 35.47 39.4018 34.3234 39.1863C33.1768 38.9709 32.1235 38.4391 31.2969 37.6583C30.4702 36.8775 29.9072 35.8826 29.6791 34.7996C29.4511 33.7165 29.5681 32.5939 30.0155 31.5737C30.4629 30.5535 31.2205 29.6815 32.1926 29.068C33.1646 28.4545 34.3075 28.127 35.4765 28.127C37.0437 28.1287 38.5461 28.7174 39.6543 29.7641C40.7624 30.8109 41.3857 32.23 41.3875 33.7103ZM27.8394 30.702C27.4182 31.655 27.2013 32.6774 27.2013 33.71C27.2013 34.7427 27.4182 35.7651 27.8394 36.718L22.2766 39.7831L17.4499 33.7077L22.2723 27.634L27.8394 30.702ZM29.0555 38.6341C29.8301 39.5375 30.8085 40.266 31.9194 40.7665C33.0303 41.2669 34.2455 41.5266 35.4762 41.5266C36.707 41.5266 37.9222 41.2669 39.0331 40.7665C40.1439 40.266 41.1224 39.5375 41.897 38.6341L47.2464 41.5821L38.7867 52.2315C37.743 51.7998 36.6159 51.577 35.4765 51.577C34.3371 51.577 33.2101 51.7998 32.1664 52.2315L23.7056 41.5814L29.0555 38.6341ZM43.1136 36.7186C43.5349 35.7657 43.7518 34.7433 43.7518 33.7106C43.7518 32.6779 43.5349 31.6555 43.1136 30.7026L48.6807 27.6351L53.5032 33.7088L48.6765 39.7843L43.1136 36.7186ZM35.4765 2.44377C36.6456 2.44377 37.7884 2.77123 38.7605 3.38473C39.7325 3.99823 40.4902 4.87023 40.9375 5.89044C41.3849 6.91066 41.502 8.03328 41.2739 9.11633C41.0458 10.1994 40.4829 11.1942 39.6562 11.9751C38.8296 12.7559 37.7763 13.2877 36.6297 13.5031C35.4831 13.7185 34.2946 13.608 33.2145 13.1854C32.1344 12.7628 31.2113 12.0472 30.5618 11.129C29.9122 10.2108 29.5656 9.13136 29.5656 8.02708C29.5673 6.54681 30.1907 5.12764 31.2988 4.08092C32.4069 3.03421 33.9094 2.44544 35.4765 2.44377ZM27.7378 10.7922C28.2391 12.0364 29.0672 13.1396 30.1443 13.9982L21.6449 24.703L16.4063 21.8165C16.7225 20.2997 16.5545 18.7285 15.9237 17.3021L27.7378 10.7922ZM8.28611 25.8937C7.11703 25.8937 5.97421 25.5662 5.00215 24.9527C4.0301 24.3392 3.27248 23.4672 2.82509 22.447C2.3777 21.4268 2.26065 20.3042 2.48872 19.2211C2.7168 18.1381 3.27976 17.1432 4.10643 16.3624C4.93309 15.5815 5.98632 15.0498 7.13294 14.8343C8.27955 14.6189 9.46805 14.7295 10.5481 15.1521C11.6282 15.5746 12.5514 16.2903 13.2009 17.2084C13.8504 18.1266 14.1971 19.2061 14.1971 20.3104C14.1953 21.7906 13.572 23.2098 12.4638 24.2565C11.3557 25.3032 9.85325 25.892 8.28611 25.8937ZM12.2537 27.1679C13.6768 26.4292 14.8404 25.3139 15.6015 23.9589L20.2164 26.5017L15.9715 31.8477L12.2537 27.1679ZM15.9723 35.5691L20.2206 40.9165L16.0249 43.2285C15.4087 41.7003 14.3033 40.3918 12.8625 39.4853L15.9723 35.5691ZM8.28611 51.5769C7.11703 51.5769 5.97421 51.2494 5.00215 50.6359C4.0301 50.0224 3.27248 49.1505 2.82509 48.1302C2.3777 47.11 2.26065 45.9874 2.48872 44.9043C2.7168 43.8213 3.27976 42.8264 4.10643 42.0456C4.93309 41.2648 5.98632 40.733 7.13294 40.5176C8.27955 40.3021 9.46805 40.4127 10.5481 40.8353C11.6282 41.2579 12.5514 41.9735 13.2009 42.8917C13.8504 43.8098 14.1971 44.8893 14.1971 45.9936C14.1953 47.4739 13.572 48.893 12.4638 49.9398C11.3557 50.9865 9.85325 51.5752 8.28611 51.5769ZM15.4687 49.8681C16.1857 48.6892 16.5626 47.3532 16.5615 45.9936C16.5615 45.8368 16.5551 45.6816 16.5455 45.5271L21.6493 42.7149L30.1516 53.4165C29.071 54.2758 28.2402 55.3813 27.7378 56.6284L15.4687 49.8681ZM35.4765 64.9768C34.3075 64.9768 33.1646 64.6494 32.1926 64.0359C31.2205 63.4224 30.4629 62.5504 30.0155 61.5302C29.5681 60.51 29.4511 59.3873 29.6791 58.3043C29.9072 57.2212 30.4702 56.2264 31.2969 55.4455C32.1235 54.6647 33.1768 54.1329 34.3234 53.9175C35.47 53.7021 36.6585 53.8126 37.7386 54.2352C38.8186 54.6578 39.7418 55.3734 40.3913 56.2916C41.0408 57.2098 41.3875 58.2893 41.3875 59.3935C41.3857 60.8738 40.7624 62.293 39.6543 63.3397C38.5461 64.3864 37.0437 64.9752 35.4765 64.9768ZM43.2153 56.6284C42.7129 55.3813 41.8821 54.2758 40.8014 53.4165L49.3038 42.7149L54.4076 45.5271C54.398 45.6816 54.3916 45.8368 54.3916 45.9936C54.3905 47.3532 54.7673 48.6892 55.4844 49.8681L43.2153 56.6284ZM62.667 40.4103C63.836 40.4103 64.9789 40.7377 65.9509 41.3512C66.923 41.9647 67.6806 42.8367 68.128 43.857C68.5754 44.8772 68.6924 45.9998 68.4643 47.0828C68.2363 48.1659 67.6733 49.1607 66.8466 49.9416C66.02 50.7224 64.9667 51.2542 63.8201 51.4696C62.6735 51.6851 61.485 51.5745 60.4049 51.1519C59.3248 50.7293 58.4017 50.0137 57.7522 49.0955C57.1027 48.1773 56.756 47.0979 56.756 45.9936C56.7578 44.5133 57.3811 43.0941 58.4892 42.0474C59.5974 41.0007 61.0998 40.4119 62.667 40.4103ZM58.0902 39.4853C56.6495 40.3918 55.544 41.7003 54.9279 43.2285L50.7321 40.9165L54.9805 35.5691L58.0902 39.4853ZM54.9815 31.8476L50.7367 26.5016L55.3521 23.9589C56.1132 25.3139 57.2768 26.4292 58.7 27.1679L54.9815 31.8476Z" fill="white"/>
<path d="M4.74023 20.3104H7.10462C7.10497 20.0144 7.22964 19.7305 7.45127 19.5212C7.67289 19.3119 7.97338 19.1941 8.28681 19.1938V16.9604C7.34653 16.9614 6.44505 17.3147 5.78017 17.9427C5.11529 18.5708 4.74129 19.4223 4.74023 20.3104Z" fill="white"/>
<path d="M4.74023 45.9935H7.10462C7.10497 45.6975 7.22964 45.4136 7.45127 45.2043C7.67289 44.995 7.97338 44.8772 8.28681 44.8769V42.6436C7.34653 42.6446 6.44505 42.9978 5.78017 43.6258C5.11529 44.2539 4.74129 45.1054 4.74023 45.9935Z" fill="white"/>
<path d="M62.6677 19.1938V16.9604C61.7274 16.9614 60.8259 17.3147 60.161 17.9427C59.4961 18.5708 59.1221 19.4223 59.1211 20.3104H61.4855C61.4858 20.0144 61.6105 19.7305 61.8321 19.5212C62.0538 19.3119 62.3542 19.1941 62.6677 19.1938Z" fill="white"/>
<path d="M62.6677 44.8769V42.6436C61.7274 42.6446 60.8259 42.9978 60.161 43.6258C59.4961 44.2539 59.1221 45.1054 59.1211 45.9935H61.4855C61.4858 45.6975 61.6105 45.4136 61.8321 45.2043C62.0538 44.995 62.3542 44.8772 62.6677 44.8769Z" fill="white"/>
</svg>
