<svg width="33" height="35" viewBox="0 0 33 35" fill="none" xmlns="http://www.w3.org/2000/svg">
<rect x="2.74805" y="4.3042" width="30" height="30" rx="12" fill="#D8DEED"/>
<rect x="0.748047" y="0.304199" width="30" height="30" rx="12" fill="#157FCC"/>
<path fill-rule="evenodd" clip-rule="evenodd" d="M18.9908 8.04176C18.9908 10.2628 20.794 12.0632 23.0182 12.0632C23.2631 12.062 23.5074 12.0385 23.748 11.993V19.9657C23.748 23.3198 21.7695 25.3042 18.4105 25.3042H11.0944C7.72655 25.3042 5.74805 23.3198 5.74805 19.9657V12.6603C5.74805 9.30615 7.72655 7.3042 11.0944 7.3042H19.0612C19.0139 7.5472 18.9904 7.79421 18.9908 8.04176ZM16.898 18.2008L19.7559 14.513V14.4954C20.0005 14.1667 19.9381 13.7031 19.6152 13.4505C19.4589 13.3299 19.2603 13.2777 19.0647 13.3058C18.8692 13.3339 18.6934 13.44 18.5776 13.5998L16.1682 16.6993L13.4246 14.5393C13.268 14.4173 13.0688 14.3634 12.8719 14.3898C12.675 14.4163 12.497 14.5208 12.3782 14.6798L9.42367 18.4905C9.31982 18.62 9.26391 18.7813 9.26539 18.9471C9.24824 19.2823 9.45992 19.5868 9.78042 19.688C10.1009 19.7892 10.4494 19.6615 10.6284 19.3774L13.0993 16.1813L15.8428 18.3325C15.9989 18.4583 16.1994 18.5153 16.3984 18.4905C16.5975 18.4657 16.7778 18.3611 16.898 18.2008Z" fill="white"/>
<circle opacity="0.4" cx="23.248" cy="7.8042" r="2.5" fill="white"/>
</svg>
