<svg width="41" height="41" viewBox="0 0 41 41" fill="none" xmlns="http://www.w3.org/2000/svg">
<rect x="0.0820312" y="0.464355" width="40" height="40" rx="12" fill="#157FCC"/>
<path d="M23.4153 17.131C24.7414 17.131 26.0132 17.6578 26.9509 18.5954C27.8886 19.5331 28.4153 20.8049 28.4153 22.131V27.9643H25.082V22.131C25.082 21.689 24.9064 21.265 24.5939 20.9525C24.2813 20.6399 23.8574 20.4643 23.4153 20.4643C22.9733 20.4643 22.5494 20.6399 22.2368 20.9525C21.9243 21.265 21.7487 21.689 21.7487 22.131V27.9643H18.4153V22.131C18.4153 20.8049 18.9421 19.5331 19.8798 18.5954C20.8175 17.6578 22.0893 17.131 23.4153 17.131V17.131Z" fill="white"/>
<path d="M15.0821 17.9644H11.7487V27.9644H15.0821V17.9644Z" fill="white"/>
<path d="M13.4154 15.4643C14.3359 15.4643 15.0821 14.7181 15.0821 13.7976C15.0821 12.8772 14.3359 12.131 13.4154 12.131C12.4949 12.131 11.7487 12.8772 11.7487 13.7976C11.7487 14.7181 12.4949 15.4643 13.4154 15.4643Z" fill="white"/>
</svg>
